<?xml version="1.0" encoding="UTF-8"?> <svg xmlns="http://www.w3.org/2000/svg" width="530" height="147" viewBox="0 0 530 147" fill="none"><path d="M16.5178 41.9209L27 52.4031L10.5 68.9387L0 58.4387L16.5178 41.9209Z" fill="#1F324B"></path><path d="M0.497065 129.974L52.5322 77.9388L69.0501 94.4566L17.0149 146.492L0.497065 129.974Z" fill="#1F324B"></path><path d="M16.5178 0L68.9862 52.4684L52.4684 68.9862L0 16.5178L16.5178 0Z" fill="url(#paint0_linear)"></path><path d="M0.497036 88.053L52.5322 36.0179L69.05 52.5357L17.0149 104.571L0.497036 88.053Z" fill="url(#paint1_linear)"></path><path d="M109.908 109H140.553C147.63 109 152.882 107.063 156.308 103.188C159.766 99.2813 161.496 94.2378 161.496 88.0576C161.496 84.7273 160.679 81.6692 159.046 78.8833C157.445 76.0653 155.027 73.9839 151.793 72.639C153.842 71.3901 155.443 69.6289 156.596 67.3553C157.749 65.0818 158.325 62.3759 158.325 59.2378C158.325 56.1957 157.621 53.1856 156.212 50.2075C154.803 47.2295 152.577 44.7638 149.535 42.8105C146.493 40.8251 142.506 39.8324 137.575 39.8324H109.908V109ZM123.165 66.827V52.0328H137.383C139.881 52.0328 141.786 52.7533 143.099 54.1943C144.412 55.6353 145.068 57.4125 145.068 59.5259C145.068 62.0557 144.332 63.913 142.859 65.0978C141.418 66.2506 139.592 66.827 137.383 66.827H123.165ZM123.165 96.7035V79.0274H139.208C142.25 79.0274 144.524 79.8439 146.029 81.4771C147.566 83.0782 148.334 85.1116 148.334 87.5773C148.334 90.3632 147.47 92.5887 145.741 94.2539C144.044 95.887 141.866 96.7035 139.208 96.7035H123.165ZM171.075 109H184.236V82.4858C184.236 76.4656 186.606 72.3668 191.345 70.1893C192.882 69.4528 194.595 69.0205 196.485 68.8924C198.406 68.7323 200.087 68.8764 201.528 69.3247V57.1243C199.19 56.8361 196.853 56.9001 194.515 57.3164C192.178 57.7007 190.064 58.4692 188.175 59.622C186.958 60.3265 185.885 61.1751 184.957 62.1678C184.06 63.1605 183.276 64.2652 182.603 65.4821V57.1243H171.075V109ZM233.071 110.441C238.258 110.441 242.822 109.288 246.76 106.983C250.731 104.645 253.821 101.427 256.031 97.328C258.272 93.1971 259.393 88.4419 259.393 83.0621C259.393 77.7145 258.288 72.9912 256.079 68.8924C253.869 64.7616 250.779 61.5273 246.808 59.1897C242.87 56.8521 238.29 55.6833 233.071 55.6833C227.947 55.6833 223.416 56.8361 219.477 59.1417C215.539 61.4473 212.449 64.6655 210.207 68.7963C207.966 72.8952 206.845 77.6504 206.845 83.0621C206.845 88.4098 207.933 93.1491 210.111 97.2799C212.321 101.379 215.395 104.597 219.333 106.935C223.272 109.272 227.851 110.441 233.071 110.441ZM233.071 98.2406C229.004 98.2406 225.914 96.8797 223.8 94.1578C221.719 91.4039 220.678 87.7053 220.678 83.0621C220.678 78.547 221.671 74.8965 223.656 72.1106C225.674 69.2927 228.812 67.8837 233.071 67.8837C237.202 67.8837 240.308 69.2607 242.389 72.0145C244.503 74.7684 245.559 78.451 245.559 83.0621C245.559 87.5132 244.519 91.1637 242.437 94.0137C240.388 96.8316 237.266 98.2406 233.071 98.2406ZM269.86 109H283.213V84.0228L301.177 109H318.181L298.199 83.0621L316.932 57.1243H300.793L283.213 82.1015V39.8324H269.956L269.86 109ZM346.135 110.441C351.131 110.441 355.726 109.128 359.921 106.502C364.148 103.876 367.238 100.194 369.191 95.4547L356.126 91.7081C354.141 96.0631 350.554 98.2406 345.367 98.2406C341.812 98.2406 339.01 97.2479 336.961 95.2625C334.944 93.2772 333.695 90.4272 333.214 86.7127H369.624C370.168 80.4363 369.527 74.9766 367.702 70.3334C365.877 65.6902 363.059 62.0877 359.248 59.5259C355.438 56.9642 350.811 55.6833 345.367 55.6833C340.243 55.6833 335.712 56.8521 331.773 59.1897C327.835 61.4953 324.745 64.7455 322.503 68.9404C320.262 73.1353 319.141 78.0667 319.141 83.7346C319.141 88.9222 320.278 93.5334 322.551 97.5681C324.857 101.571 328.027 104.725 332.062 107.031C336.128 109.304 340.82 110.441 346.135 110.441ZM345.943 67.0191C349.081 67.0191 351.483 67.8036 353.148 69.3727C354.845 70.9418 355.934 73.4876 356.414 77.01H333.551C334.928 70.3494 339.058 67.0191 345.943 67.0191ZM380.469 109H393.63V82.4858C393.63 76.4656 396 72.3668 400.739 70.1893C402.276 69.4528 403.989 69.0205 405.879 68.8924C407.8 68.7323 409.481 68.8764 410.922 69.3247V57.1243C408.585 56.8361 406.247 56.9001 403.909 57.3164C401.572 57.7007 399.458 58.4692 397.569 59.622C396.352 60.3265 395.279 61.1751 394.351 62.1678C393.454 63.1605 392.67 64.2652 391.997 65.4821V57.1243H380.469V109ZM443.233 110.441C448.229 110.441 452.824 109.128 457.019 106.502C461.246 103.876 464.336 100.194 466.289 95.4547L453.224 91.7081C451.239 96.0631 447.652 98.2406 442.465 98.2406C438.91 98.2406 436.109 97.2479 434.059 95.2625C432.042 93.2772 430.793 90.4272 430.313 86.7127H466.722C467.266 80.4363 466.626 74.9766 464.8 70.3334C462.975 65.6902 460.157 62.0877 456.346 59.5259C452.536 56.9642 447.909 55.6833 442.465 55.6833C437.341 55.6833 432.81 56.8521 428.872 59.1897C424.933 61.4953 421.843 64.7455 419.601 68.9404C417.36 73.1353 416.239 78.0667 416.239 83.7346C416.239 88.9222 417.376 93.5334 419.649 97.5681C421.955 101.571 425.125 104.725 429.16 107.031C433.227 109.304 437.918 110.441 443.233 110.441ZM443.041 67.0191C446.179 67.0191 448.581 67.8036 450.246 69.3727C451.943 70.9418 453.032 73.4876 453.513 77.01H430.649C432.026 70.3494 436.157 67.0191 443.041 67.0191ZM501.68 110.441C506.675 110.441 511.271 109.128 515.465 106.502C519.692 103.876 522.782 100.194 524.736 95.4547L511.671 91.7081C509.685 96.0631 506.099 98.2406 500.911 98.2406C497.357 98.2406 494.555 97.2479 492.506 95.2625C490.488 93.2772 489.239 90.4272 488.759 86.7127H525.168C525.712 80.4363 525.072 74.9766 523.247 70.3334C521.421 65.6902 518.604 62.0877 514.793 59.5259C510.982 56.9642 506.355 55.6833 500.911 55.6833C495.788 55.6833 491.257 56.8521 487.318 59.1897C483.379 61.4953 480.289 64.7455 478.048 68.9404C475.806 73.1353 474.685 78.0667 474.685 83.7346C474.685 88.9222 475.822 93.5334 478.096 97.5681C480.401 101.571 483.571 104.725 487.606 107.031C491.673 109.304 496.364 110.441 501.68 110.441ZM501.488 67.0191C504.626 67.0191 507.028 67.8036 508.693 69.3727C510.39 70.9418 511.479 73.4876 511.959 77.01H489.095C490.472 70.3494 494.603 67.0191 501.488 67.0191Z" fill="#1F324B"></path><defs><linearGradient id="paint0_linear" x1="-1.42871e-07" y1="2.46976" x2="95.2745" y2="63.8954" gradientUnits="userSpaceOnUse"><stop stop-color="#CEFB2C"></stop><stop offset="1" stop-color="#05C7FB"></stop></linearGradient><linearGradient id="paint1_linear" x1="-1.42871e-07" y1="2.46976" x2="95.2745" y2="63.8954" gradientUnits="userSpaceOnUse"><stop stop-color="#CEFB2C"></stop><stop offset="1" stop-color="#05C7FB"></stop></linearGradient></defs></svg> 