<svg width="40" height="40" viewBox="0 0 40 40" fill="none" xmlns="http://www.w3.org/2000/svg">
<g clip-path="url(#clip0_62_632)">
<path d="M32 0H8C3.58172 0 0 3.58172 0 8V32C0 36.4183 3.58172 40 8 40H32C36.4183 40 40 36.4183 40 32V8C40 3.58172 36.4183 0 32 0Z" fill="#FFFFFF"/>
<path fill-rule="evenodd" clip-rule="evenodd" d="M7.49785 8.44727H24.5021C25.3294 8.44727 26 9.11786 26 9.94512V17.4472H15.4979C14.1183 17.4472 13 18.5655 13 19.9451V21.5508H7.49785C6.67059 21.5508 6 20.8801 6 20.0529V9.94512C6 9.11786 6.67059 8.44727 7.49785 8.44727Z" fill="#41479B"/>
<path d="M16.1401 9.94773L16.2784 10.3623L16.7154 10.3657C16.772 10.3661 16.7954 10.4383 16.7499 10.4719L16.3983 10.7315L16.5301 11.1482C16.5472 11.2021 16.4858 11.2468 16.4397 11.2138L16.0842 10.9597L15.7287 11.2138C15.6827 11.2467 15.6213 11.2021 15.6383 11.1482L15.7701 10.7315L15.4186 10.4719C15.3731 10.4383 15.3965 10.3661 15.4531 10.3657L15.8901 10.3623L16.0284 9.94773C16.0462 9.89405 16.1222 9.89405 16.1401 9.94773Z" fill="#FFE15A"/>
<path d="M20.5902 14.3981L20.7285 14.8127L21.1655 14.8161C21.2221 14.8165 21.2455 14.8887 21.2 14.9223L20.8485 15.1819L20.9803 15.5986C20.9973 15.6525 20.9359 15.6972 20.8899 15.6642L20.5344 15.4101L20.1789 15.6642C20.1328 15.6971 20.0714 15.6525 20.0885 15.5986L20.2203 15.1819L19.8687 14.9223C19.8232 14.8887 19.8466 14.8165 19.9032 14.8161L20.3402 14.8127L20.4785 14.3981C20.4964 14.3445 20.5723 14.3445 20.5902 14.3981Z" fill="#FFE15A"/>
<path d="M11.6899 14.3981L11.8281 14.8127L12.2651 14.8161C12.3217 14.8165 12.3452 14.8887 12.2997 14.9223L11.9481 15.1819L12.0799 15.5986C12.097 15.6525 12.0356 15.6972 11.9895 15.6642L11.634 15.4101L11.2785 15.6642C11.2325 15.6971 11.171 15.6525 11.1881 15.5986L11.3199 15.1819L10.9683 14.9223C10.9228 14.8887 10.9463 14.8165 11.0029 14.8161L11.4399 14.8127L11.5781 14.3981C11.596 14.3445 11.672 14.3445 11.6899 14.3981Z" fill="#FFE15A"/>
<path d="M12.3578 12.074L12.4961 12.4885L12.9331 12.4919C12.9897 12.4924 13.0132 12.5645 12.9676 12.5982L12.6161 12.8578L12.7479 13.2744C12.765 13.3283 12.7035 13.373 12.6575 13.3401L12.302 13.086L11.9465 13.3401C11.9005 13.373 11.839 13.3284 11.8561 13.2744L11.9879 12.8578L11.6363 12.5982C11.5908 12.5645 11.6142 12.4924 11.6709 12.4919L12.1078 12.4885L12.2461 12.074C12.264 12.0203 12.3399 12.0203 12.3578 12.074Z" fill="#FFE15A"/>
<path d="M18.4369 10.4451L18.5752 10.8596L19.0122 10.863C19.0688 10.8635 19.0922 10.9356 19.0467 10.9693L18.6952 11.2289L18.827 11.6455C18.844 11.6994 18.7826 11.7441 18.7366 11.7112L18.3811 11.4571L18.0255 11.7112C17.9795 11.7441 17.9181 11.6995 17.9351 11.6455L18.0669 11.2289L17.7154 10.9693C17.6699 10.9356 17.6933 10.8635 17.7499 10.863L18.1869 10.8596L18.3252 10.4451C18.3431 10.3914 18.419 10.3914 18.4369 10.4451Z" fill="#FFE15A"/>
<path d="M19.9541 12.074L19.8158 12.4885L19.3788 12.4919C19.3222 12.4924 19.2988 12.5645 19.3443 12.5982L19.6959 12.8578L19.5641 13.2744C19.547 13.3283 19.6084 13.373 19.6545 13.3401L20.01 13.086L20.3655 13.3401C20.4115 13.373 20.4729 13.3284 20.4559 13.2744L20.3241 12.8578L20.6756 12.5982C20.7211 12.5645 20.6977 12.4924 20.6411 12.4919L20.2041 12.4885L20.0658 12.074C20.0479 12.0203 19.972 12.0203 19.9541 12.074Z" fill="#FFE15A"/>
<path d="M12.2461 16.5244L12.1078 16.9389L11.6709 16.9423C11.6142 16.9428 11.5908 17.015 11.6363 17.0486L11.9879 17.3082L11.8561 17.7248C11.839 17.7788 11.9004 17.8234 11.9465 17.7905L12.302 17.5364L12.6575 17.7905C12.7035 17.8234 12.765 17.7788 12.7479 17.7248L12.6161 17.3082L12.9676 17.0486C13.0132 17.015 12.9897 16.9428 12.9331 16.9423L12.4961 16.9389L12.3578 16.5244C12.3399 16.4707 12.264 16.4707 12.2461 16.5244Z" fill="#FFE15A"/>
<path d="M13.8751 10.4451L13.7368 10.8596L13.2998 10.863C13.2432 10.8635 13.2197 10.9356 13.2652 10.9693L13.6168 11.2289L13.485 11.6455C13.4679 11.6994 13.5293 11.7441 13.5754 11.7112L13.9309 11.4571L14.2864 11.7112C14.3324 11.7441 14.3939 11.6995 14.3768 11.6455L14.245 11.2289L14.5966 10.9693C14.6421 10.9356 14.6186 10.8635 14.562 10.863L14.1251 10.8596L13.9868 10.4451C13.9688 10.3914 13.8929 10.3914 13.8751 10.4451Z" fill="#FFE15A"/>
<path fill-rule="evenodd" clip-rule="evenodd" d="M20.2041 16.9389L20.0658 16.5243C20.0479 16.4707 19.972 16.4707 19.9541 16.5243L19.8158 16.9389L19.3788 16.9423C19.3222 16.9427 19.2988 17.0149 19.3443 17.0485L19.6959 17.3081L19.6519 17.4471H20.368L20.3241 17.3081L20.6756 17.0485C20.7211 17.0149 20.6977 16.9427 20.6411 16.9423L20.2041 16.9389Z" fill="#FFE15A"/>
<path d="M32.5021 18.449H15.4979C14.6706 18.449 14 19.1196 14 19.9468V30.0546C14 30.8818 14.6706 31.5525 15.4979 31.5525H32.5021C33.3294 31.5525 34 30.8819 34 30.0546V19.9468C34 19.1196 33.3294 18.449 32.5021 18.449Z" fill="white"/>
<path d="M14.082 19.4552H33.9172C33.7142 18.8686 33.1573 18.4473 32.5017 18.4473H15.4975C14.8418 18.4473 14.285 18.8686 14.082 19.4552Z" fill="#FF4B55"/>
<path d="M34 22.479H14V23.4869H34V22.479Z" fill="#FF4B55"/>
<path d="M34 20.4631H14V21.471H34V20.4631Z" fill="#FF4B55"/>
<path d="M14 25.1582C14 25.3487 14.1544 25.5031 14.3448 25.5031H34V24.4951H14V25.1582Z" fill="#FF4B55"/>
<path d="M34 28.5271H14V29.5351H34V28.5271Z" fill="#FF4B55"/>
<path d="M33.9172 30.5427H14.082C14.285 31.1293 14.8419 31.5507 15.4975 31.5507H32.5017C33.1574 31.5507 33.7142 31.1293 33.9172 30.5427Z" fill="#FF4B55"/>
<path d="M34 26.5112H14V27.5191H34V26.5112Z" fill="#FF4B55"/>
<path d="M14.3448 25.5031H22.9655C23.156 25.5031 23.3104 25.3487 23.3104 25.1582V18.7922C23.3104 18.6017 23.156 18.4473 22.9655 18.4473H15.4979C14.6706 18.4474 14 19.118 14 19.9452V25.1582C14 25.3487 14.1544 25.5031 14.3448 25.5031Z" fill="#41479B"/>
<path d="M14.9682 19.2388L15.0446 19.4677L15.2859 19.4695C15.3171 19.4698 15.33 19.5096 15.3049 19.5282L15.1108 19.6715L15.1836 19.9015C15.1931 19.9313 15.1591 19.956 15.1337 19.9378L14.9374 19.7975L14.7411 19.9378C14.7157 19.956 14.6818 19.9313 14.6912 19.9016L14.764 19.6715L14.5699 19.5282C14.5448 19.5096 14.5577 19.4698 14.589 19.4695L14.8303 19.4677L14.9066 19.2388C14.9164 19.2091 14.9583 19.2091 14.9682 19.2388Z" fill="white"/>
<path d="M14.9682 20.436L15.0446 20.665L15.2859 20.6668C15.3171 20.6671 15.33 20.7069 15.3049 20.7255L15.1108 20.8688L15.1836 21.0989C15.1931 21.1286 15.1591 21.1533 15.1337 21.1351L14.9374 20.9948L14.7411 21.1352C14.7157 21.1533 14.6818 21.1287 14.6912 21.0989L14.764 20.8689L14.5699 20.7255C14.5448 20.7069 14.5577 20.6671 14.589 20.6668L14.8303 20.665L14.9066 20.4361C14.9164 20.4064 14.9583 20.4064 14.9682 20.436Z" fill="white"/>
<path d="M14.9682 21.6335L15.0446 21.8624L15.2859 21.8643C15.3171 21.8645 15.33 21.9043 15.3049 21.9229L15.1108 22.0663L15.1836 22.2963C15.1931 22.3261 15.1591 22.3508 15.1337 22.3326L14.9374 22.1923L14.7411 22.3326C14.7157 22.3508 14.6818 22.3262 14.6912 22.2964L14.764 22.0663L14.5699 21.923C14.5448 21.9044 14.5577 21.8646 14.589 21.8643L14.8303 21.8625L14.9066 21.6336C14.9164 21.6039 14.9583 21.6039 14.9682 21.6335Z" fill="white"/>
<path d="M14.9682 22.831L15.0446 23.0599L15.2859 23.0618C15.3171 23.062 15.33 23.1019 15.3049 23.1204L15.1108 23.2638L15.1836 23.4938C15.1931 23.5236 15.1591 23.5483 15.1337 23.5301L14.9374 23.3898L14.7411 23.5301C14.7157 23.5483 14.6818 23.5236 14.6912 23.4939L14.764 23.2638L14.5699 23.1205C14.5448 23.102 14.5577 23.0621 14.589 23.0618L14.8303 23.06L14.9066 22.8311C14.9164 22.8014 14.9583 22.8014 14.9682 22.831Z" fill="white"/>
<path d="M14.9682 24.0286L15.0446 24.2575L15.2859 24.2593C15.3171 24.2596 15.33 24.2994 15.3049 24.318L15.1108 24.4613L15.1836 24.6914C15.1931 24.7211 15.1591 24.7458 15.1337 24.7276L14.9374 24.5873L14.7411 24.7277C14.7157 24.7458 14.6818 24.7212 14.6912 24.6914L14.764 24.4614L14.5699 24.318C14.5448 24.2994 14.5577 24.2596 14.589 24.2593L14.8303 24.2575L14.9066 24.0286C14.9164 23.9989 14.9583 23.9989 14.9682 24.0286Z" fill="white"/>
<path d="M15.8979 19.8259L15.9742 20.0548L16.2155 20.0566C16.2467 20.0569 16.2597 20.0968 16.2346 20.1153L16.0405 20.2587L16.1133 20.4887C16.1227 20.5185 16.0888 20.5432 16.0634 20.525L15.8671 20.3847L15.6708 20.525C15.6453 20.5431 15.6115 20.5185 15.6209 20.4887L15.6937 20.2587L15.4996 20.1153C15.4744 20.0967 15.4874 20.0569 15.5186 20.0566L15.7599 20.0548L15.8362 19.8259C15.8461 19.7963 15.888 19.7963 15.8979 19.8259Z" fill="white"/>
<path d="M15.8979 21.0233L15.9742 21.2522L16.2155 21.254C16.2467 21.2543 16.2597 21.2941 16.2346 21.3127L16.0405 21.456L16.1133 21.6861C16.1227 21.7158 16.0888 21.7405 16.0634 21.7223L15.8671 21.582L15.6708 21.7223C15.6453 21.7405 15.6115 21.7159 15.6209 21.6861L15.6937 21.456L15.4996 21.3127C15.4744 21.2942 15.4874 21.2543 15.5186 21.254L15.7599 21.2522L15.8362 21.0233C15.8461 20.9936 15.888 20.9936 15.8979 21.0233Z" fill="white"/>
<path d="M15.8979 22.2208L15.9742 22.4497L16.2155 22.4515C16.2467 22.4518 16.2597 22.4916 16.2346 22.5102L16.0405 22.6536L16.1133 22.8836C16.1227 22.9134 16.0888 22.938 16.0634 22.9198L15.8671 22.7795L15.6708 22.9198C15.6453 22.938 15.6115 22.9134 15.6209 22.8836L15.6937 22.6536L15.4996 22.5102C15.4744 22.4916 15.4874 22.4518 15.5186 22.4515L15.7599 22.4497L15.8362 22.2208C15.8461 22.1911 15.888 22.1911 15.8979 22.2208Z" fill="white"/>
<path d="M15.8979 23.4182L15.9742 23.6471L16.2155 23.6489C16.2467 23.6492 16.2597 23.689 16.2346 23.7076L16.0405 23.851L16.1133 24.081C16.1227 24.1108 16.0888 24.1355 16.0634 24.1173L15.8671 23.977L15.6708 24.1173C15.6453 24.1355 15.6115 24.1108 15.6209 24.081L15.6937 23.851L15.4996 23.7076C15.4744 23.689 15.4874 23.6492 15.5186 23.6489L15.7599 23.6471L15.8362 23.4182C15.8461 23.3886 15.888 23.3886 15.8979 23.4182Z" fill="white"/>
<path d="M16.8276 19.2388L16.904 19.4677L17.1452 19.4696C17.1765 19.4698 17.1894 19.5097 17.1643 19.5282L16.9702 19.6716L17.043 19.9016C17.0525 19.9314 17.0185 19.9561 16.9931 19.9379L16.7968 19.7975L16.6005 19.9379C16.5751 19.9561 16.5412 19.9314 16.5506 19.9016L16.6234 19.6716L16.4293 19.5282C16.4042 19.5096 16.4171 19.4698 16.4484 19.4696L16.6897 19.4677L16.766 19.2388C16.7758 19.2092 16.8177 19.2092 16.8276 19.2388Z" fill="white"/>
<path d="M16.8276 20.436L16.904 20.665L17.1452 20.6668C17.1765 20.6671 17.1894 20.7069 17.1643 20.7255L16.9702 20.8688L17.043 21.0989C17.0525 21.1286 17.0185 21.1533 16.9931 21.1351L16.7968 20.9948L16.6005 21.1351C16.5751 21.1533 16.5412 21.1286 16.5506 21.0989L16.6234 20.8688L16.4293 20.7255C16.4042 20.7069 16.4171 20.6671 16.4484 20.6668L16.6897 20.665L16.766 20.436C16.7758 20.4064 16.8177 20.4064 16.8276 20.436Z" fill="white"/>
<path d="M16.8276 21.6335L16.904 21.8624L17.1452 21.8643C17.1765 21.8645 17.1894 21.9043 17.1643 21.9229L16.9702 22.0663L17.043 22.2963C17.0525 22.3261 17.0185 22.3508 16.9931 22.3326L16.7968 22.1923L16.6005 22.3326C16.5751 22.3507 16.5412 22.3261 16.5506 22.2963L16.6234 22.0663L16.4293 21.9229C16.4042 21.9043 16.4171 21.8645 16.4484 21.8643L16.6897 21.8624L16.766 21.6335C16.7758 21.6039 16.8177 21.6039 16.8276 21.6335Z" fill="white"/>
<path d="M16.8276 22.831L16.904 23.0599L17.1452 23.0618C17.1765 23.0621 17.1894 23.1019 17.1643 23.1204L16.9702 23.2638L17.043 23.4938C17.0525 23.5236 17.0185 23.5483 16.9931 23.5301L16.7968 23.3898L16.6005 23.5301C16.5751 23.5483 16.5412 23.5236 16.5506 23.4938L16.6234 23.2638L16.4293 23.1204C16.4042 23.1019 16.4171 23.0621 16.4484 23.0618L16.6897 23.0599L16.766 22.831C16.7758 22.8014 16.8177 22.8014 16.8276 22.831Z" fill="white"/>
<path d="M16.8276 24.0286L16.904 24.2575L17.1452 24.2593C17.1765 24.2596 17.1894 24.2994 17.1643 24.318L16.9702 24.4613L17.043 24.6914C17.0525 24.7211 17.0185 24.7458 16.9931 24.7276L16.7968 24.5873L16.6005 24.7276C16.5751 24.7458 16.5412 24.7211 16.5506 24.6914L16.6234 24.4613L16.4293 24.318C16.4042 24.2994 16.4171 24.2596 16.4484 24.2593L16.6897 24.2575L16.766 24.0286C16.7758 23.9989 16.8177 23.9989 16.8276 24.0286Z" fill="white"/>
<path d="M17.7564 19.8259L17.8327 20.0548L18.074 20.0566C18.1052 20.0569 18.1182 20.0968 18.093 20.1153L17.8989 20.2587L17.9718 20.4887C17.9812 20.5185 17.9473 20.5432 17.9218 20.525L17.7255 20.3847L17.5293 20.525C17.5038 20.5431 17.47 20.5185 17.4793 20.4887L17.5522 20.2587L17.358 20.1153C17.3329 20.0967 17.3459 20.0569 17.3771 20.0566L17.6184 20.0548L17.6947 19.8259C17.7045 19.7963 17.7465 19.7963 17.7564 19.8259Z" fill="white"/>
<path d="M17.7564 21.0233L17.8327 21.2522L18.074 21.254C18.1052 21.2543 18.1182 21.2941 18.093 21.3127L17.8989 21.456L17.9718 21.6861C17.9812 21.7158 17.9473 21.7405 17.9218 21.7223L17.7255 21.582L17.5293 21.7223C17.5038 21.7405 17.47 21.7159 17.4793 21.6861L17.5522 21.456L17.358 21.3127C17.3329 21.2942 17.3459 21.2543 17.3771 21.254L17.6184 21.2522L17.6947 21.0233C17.7045 20.9936 17.7465 20.9936 17.7564 21.0233Z" fill="white"/>
<path d="M17.7564 22.2208L17.8327 22.4497L18.074 22.4515C18.1052 22.4518 18.1182 22.4916 18.093 22.5102L17.8989 22.6536L17.9718 22.8836C17.9812 22.9134 17.9473 22.938 17.9218 22.9198L17.7255 22.7795L17.5293 22.9198C17.5038 22.938 17.47 22.9134 17.4793 22.8836L17.5522 22.6536L17.358 22.5102C17.3329 22.4916 17.3459 22.4518 17.3771 22.4515L17.6184 22.4497L17.6947 22.2208C17.7045 22.1911 17.7465 22.1911 17.7564 22.2208Z" fill="white"/>
<path d="M17.7564 23.4182L17.8327 23.6471L18.074 23.6489C18.1052 23.6492 18.1182 23.689 18.093 23.7076L17.8989 23.851L17.9718 24.081C17.9812 24.1108 17.9473 24.1355 17.9218 24.1173L17.7255 23.977L17.5293 24.1173C17.5038 24.1355 17.47 24.1108 17.4793 24.081L17.5522 23.851L17.358 23.7076C17.3329 23.689 17.3459 23.6492 17.3771 23.6489L17.6184 23.6471L17.6947 23.4182C17.7045 23.3886 17.7465 23.3886 17.7564 23.4182Z" fill="white"/>
<path d="M18.686 19.2388L18.7624 19.4677L19.0036 19.4695C19.0349 19.4698 19.0478 19.5096 19.0227 19.5282L18.8286 19.6715L18.9014 19.9015C18.9109 19.9313 18.8769 19.956 18.8515 19.9378L18.6552 19.7975L18.4589 19.9378C18.4335 19.956 18.3996 19.9313 18.409 19.9016L18.4818 19.6715L18.2877 19.5282C18.2626 19.5096 18.2755 19.4698 18.3067 19.4695L18.548 19.4677L18.6243 19.2388C18.6342 19.2091 18.6761 19.2091 18.686 19.2388Z" fill="white"/>
<path d="M18.686 20.436L18.7624 20.665L19.0036 20.6668C19.0349 20.6671 19.0478 20.7069 19.0227 20.7255L18.8286 20.8688L18.9014 21.0989C18.9109 21.1286 18.8769 21.1533 18.8515 21.1351L18.6552 20.9948L18.4589 21.1351C18.4335 21.1533 18.3996 21.1286 18.409 21.0989L18.4818 20.8688L18.2877 20.7255C18.2626 20.7069 18.2755 20.6671 18.3067 20.6668L18.548 20.665L18.6243 20.436C18.6342 20.4064 18.6761 20.4064 18.686 20.436Z" fill="white"/>
<path d="M18.686 21.6335L18.7624 21.8624L19.0036 21.8642C19.0349 21.8645 19.0478 21.9043 19.0227 21.9229L18.8286 22.0663L18.9014 22.2963C18.9109 22.3261 18.8769 22.3508 18.8515 22.3326L18.6552 22.1922L18.4589 22.3325C18.4335 22.3507 18.3996 22.326 18.409 22.2963L18.4818 22.0662L18.2877 21.9229C18.2626 21.9043 18.2755 21.8645 18.3067 21.8642L18.548 21.8624L18.6243 21.6335C18.6342 21.6039 18.6761 21.6039 18.686 21.6335Z" fill="white"/>
<path d="M18.686 22.831L18.7624 23.0599L19.0036 23.0618C19.0349 23.0621 19.0478 23.1019 19.0227 23.1204L18.8286 23.2638L18.9014 23.4938C18.9109 23.5236 18.8769 23.5483 18.8515 23.5301L18.6552 23.3898L18.4589 23.5301C18.4335 23.5483 18.3996 23.5236 18.409 23.4938L18.4818 23.2638L18.2877 23.1204C18.2626 23.1019 18.2755 23.0621 18.3067 23.0618L18.548 23.0599L18.6243 22.831C18.6342 22.8014 18.6761 22.8014 18.686 22.831Z" fill="white"/>
<path d="M18.686 24.0286L18.7624 24.2575L19.0036 24.2593C19.0349 24.2596 19.0478 24.2994 19.0227 24.318L18.8286 24.4613L18.9014 24.6914C18.9109 24.7211 18.8769 24.7458 18.8515 24.7276L18.6552 24.5873L18.4589 24.7276C18.4335 24.7458 18.3996 24.7211 18.409 24.6914L18.4818 24.4613L18.2877 24.318C18.2626 24.2994 18.2755 24.2596 18.3067 24.2593L18.548 24.2575L18.6243 24.0286C18.6342 23.9989 18.6761 23.9989 18.686 24.0286Z" fill="white"/>
<path d="M19.6157 19.8259L19.6921 20.0548L19.9334 20.0566C19.9646 20.0569 19.9775 20.0968 19.9524 20.1153L19.7583 20.2587L19.8311 20.4887C19.8406 20.5185 19.8066 20.5432 19.7812 20.525L19.5849 20.3847L19.3886 20.525C19.3632 20.5431 19.3293 20.5185 19.3387 20.4887L19.4115 20.2587L19.2174 20.1153C19.1923 20.0967 19.2052 20.0569 19.2365 20.0566L19.4778 20.0548L19.5541 19.8259C19.564 19.7963 19.6059 19.7963 19.6157 19.8259Z" fill="white"/>
<path d="M19.6157 21.0233L19.6921 21.2522L19.9334 21.254C19.9646 21.2543 19.9775 21.2941 19.9524 21.3127L19.7583 21.456L19.8311 21.6861C19.8406 21.7158 19.8066 21.7405 19.7812 21.7223L19.5849 21.582L19.3886 21.7223C19.3632 21.7405 19.3293 21.7159 19.3387 21.6861L19.4115 21.456L19.2174 21.3127C19.1923 21.2942 19.2052 21.2543 19.2365 21.254L19.4778 21.2522L19.5541 21.0233C19.564 20.9936 19.6059 20.9936 19.6157 21.0233Z" fill="white"/>
<path d="M19.6157 22.2208L19.6921 22.4497L19.9334 22.4515C19.9646 22.4518 19.9775 22.4916 19.9524 22.5102L19.7583 22.6536L19.8311 22.8836C19.8406 22.9134 19.8066 22.938 19.7812 22.9198L19.5849 22.7795L19.3886 22.9198C19.3632 22.938 19.3293 22.9134 19.3387 22.8836L19.4115 22.6536L19.2174 22.5102C19.1923 22.4916 19.2052 22.4518 19.2365 22.4515L19.4778 22.4497L19.5541 22.2208C19.564 22.1911 19.6059 22.1911 19.6157 22.2208Z" fill="white"/>
<path d="M19.6157 23.4182L19.6921 23.6471L19.9334 23.6489C19.9646 23.6492 19.9775 23.689 19.9524 23.7076L19.7583 23.851L19.8311 24.081C19.8406 24.1108 19.8066 24.1355 19.7812 24.1173L19.5849 23.977L19.3886 24.1173C19.3632 24.1355 19.3293 24.1108 19.3387 24.081L19.4115 23.851L19.2174 23.7076C19.1923 23.689 19.2052 23.6492 19.2365 23.6489L19.4778 23.6471L19.5541 23.4182C19.564 23.3886 19.6059 23.3886 19.6157 23.4182Z" fill="white"/>
<path d="M20.5444 19.2388L20.6207 19.4677L20.862 19.4696C20.8933 19.4698 20.9062 19.5097 20.8811 19.5282L20.687 19.6716L20.7598 19.9016C20.7692 19.9314 20.7353 19.9561 20.7099 19.9379L20.5136 19.7975L20.3173 19.9379C20.2918 19.9561 20.258 19.9314 20.2673 19.9016L20.3402 19.6716L20.1461 19.5282C20.1209 19.5096 20.1339 19.4698 20.1651 19.4696L20.4064 19.4677L20.4827 19.2388C20.4925 19.2092 20.5345 19.2092 20.5444 19.2388Z" fill="white"/>
<path d="M20.5444 20.436L20.6207 20.665L20.862 20.6668C20.8933 20.6671 20.9062 20.7069 20.8811 20.7255L20.687 20.8688L20.7598 21.0989C20.7692 21.1286 20.7353 21.1533 20.7099 21.1351L20.5136 20.9948L20.3173 21.1351C20.2918 21.1533 20.258 21.1286 20.2673 21.0989L20.3402 20.8688L20.1461 20.7255C20.1209 20.7069 20.1339 20.6671 20.1651 20.6668L20.4064 20.665L20.4827 20.436C20.4925 20.4064 20.5345 20.4064 20.5444 20.436Z" fill="white"/>
<path d="M20.5444 21.6335L20.6207 21.8624L20.862 21.8643C20.8933 21.8645 20.9062 21.9043 20.8811 21.9229L20.687 22.0663L20.7598 22.2963C20.7692 22.3261 20.7353 22.3508 20.7099 22.3326L20.5136 22.1923L20.3173 22.3326C20.2918 22.3507 20.258 22.3261 20.2673 22.2963L20.3402 22.0663L20.1461 21.9229C20.1209 21.9043 20.1339 21.8645 20.1651 21.8643L20.4064 21.8624L20.4827 21.6335C20.4925 21.6039 20.5345 21.6039 20.5444 21.6335Z" fill="white"/>
<path d="M20.5444 22.831L20.6207 23.0599L20.862 23.0618C20.8933 23.0621 20.9062 23.1019 20.8811 23.1204L20.687 23.2638L20.7598 23.4938C20.7692 23.5236 20.7353 23.5483 20.7099 23.5301L20.5136 23.3898L20.3173 23.5301C20.2918 23.5483 20.258 23.5236 20.2673 23.4938L20.3402 23.2638L20.1461 23.1204C20.1209 23.1019 20.1339 23.0621 20.1651 23.0618L20.4064 23.0599L20.4827 22.831C20.4925 22.8014 20.5345 22.8014 20.5444 22.831Z" fill="white"/>
<path d="M20.5444 24.0286L20.6207 24.2575L20.862 24.2593C20.8933 24.2596 20.9062 24.2994 20.8811 24.318L20.687 24.4613L20.7598 24.6914C20.7692 24.7211 20.7353 24.7458 20.7099 24.7276L20.5136 24.5873L20.3173 24.7276C20.2918 24.7458 20.258 24.7211 20.2673 24.6914L20.3402 24.4613L20.1461 24.318C20.1209 24.2994 20.1339 24.2596 20.1651 24.2593L20.4064 24.2575L20.4827 24.0286C20.4925 23.9989 20.5345 23.9989 20.5444 24.0286Z" fill="white"/>
<path d="M21.4741 19.8259L21.5503 20.0548L21.7917 20.0566C21.823 20.0569 21.8359 20.0968 21.8108 20.1153L21.6166 20.2587L21.6894 20.4887C21.6989 20.5185 21.6649 20.5432 21.6395 20.525L21.4433 20.3847L21.2469 20.525C21.2215 20.5431 21.1876 20.5185 21.197 20.4887L21.2698 20.2587L21.0757 20.1153C21.0506 20.0967 21.0636 20.0569 21.0949 20.0566L21.3361 20.0548L21.4125 19.8259C21.4223 19.7963 21.4642 19.7963 21.4741 19.8259Z" fill="white"/>
<path d="M21.4741 21.0233L21.5503 21.2522L21.7917 21.254C21.823 21.2543 21.8359 21.2941 21.8108 21.3127L21.6166 21.456L21.6894 21.6861C21.6989 21.7158 21.6649 21.7405 21.6395 21.7223L21.4433 21.582L21.2469 21.7223C21.2215 21.7405 21.1876 21.7159 21.197 21.6861L21.2698 21.456L21.0757 21.3127C21.0506 21.2942 21.0636 21.2543 21.0949 21.254L21.3361 21.2522L21.4125 21.0233C21.4223 20.9936 21.4642 20.9936 21.4741 21.0233Z" fill="white"/>
<path d="M21.4741 22.2208L21.5503 22.4497L21.7917 22.4515C21.823 22.4518 21.8359 22.4916 21.8108 22.5102L21.6166 22.6536L21.6894 22.8836C21.6989 22.9134 21.6649 22.938 21.6395 22.9198L21.4433 22.7795L21.2469 22.9198C21.2215 22.938 21.1876 22.9134 21.197 22.8836L21.2698 22.6536L21.0757 22.5102C21.0506 22.4916 21.0636 22.4518 21.0949 22.4515L21.3361 22.4497L21.4125 22.2208C21.4223 22.1911 21.4642 22.1911 21.4741 22.2208Z" fill="white"/>
<path d="M21.4741 23.4182L21.5503 23.6471L21.7917 23.6489C21.823 23.6492 21.8359 23.689 21.8108 23.7076L21.6166 23.851L21.6894 24.081C21.6989 24.1108 21.6649 24.1355 21.6395 24.1173L21.4433 23.977L21.2469 24.1173C21.2215 24.1355 21.1876 24.1108 21.197 24.081L21.2698 23.851L21.0757 23.7076C21.0506 23.689 21.0636 23.6492 21.0949 23.6489L21.3361 23.6471L21.4125 23.4182C21.4223 23.3886 21.4642 23.3886 21.4741 23.4182Z" fill="white"/>
<path d="M22.4038 19.2388L22.4801 19.4677L22.7214 19.4696C22.7526 19.4698 22.7656 19.5097 22.7404 19.5282L22.5463 19.6716L22.6192 19.9016C22.6286 19.9314 22.5947 19.9561 22.5692 19.9379L22.3729 19.7975L22.1767 19.9379C22.1512 19.9561 22.1174 19.9314 22.1267 19.9016L22.1995 19.6716L22.0054 19.5282C21.9803 19.5096 21.9933 19.4698 22.0245 19.4696L22.2658 19.4677L22.3421 19.2388C22.352 19.2092 22.3938 19.2092 22.4038 19.2388Z" fill="white"/>
<path d="M22.4038 20.436L22.4801 20.665L22.7214 20.6668C22.7526 20.6671 22.7656 20.7069 22.7404 20.7255L22.5463 20.8688L22.6192 21.0989C22.6286 21.1286 22.5947 21.1533 22.5692 21.1351L22.3729 20.9948L22.1767 21.1351C22.1512 21.1533 22.1174 21.1286 22.1267 21.0989L22.1995 20.8688L22.0054 20.7255C21.9803 20.7069 21.9933 20.6671 22.0245 20.6668L22.2658 20.665L22.3421 20.436C22.352 20.4064 22.3938 20.4064 22.4038 20.436Z" fill="white"/>
<path d="M22.4038 21.6335L22.4801 21.8624L22.7214 21.8643C22.7526 21.8645 22.7656 21.9043 22.7404 21.9229L22.5463 22.0663L22.6192 22.2963C22.6286 22.3261 22.5947 22.3508 22.5692 22.3326L22.3729 22.1923L22.1767 22.3326C22.1512 22.3507 22.1174 22.3261 22.1267 22.2963L22.1995 22.0663L22.0054 21.9229C21.9803 21.9043 21.9933 21.8645 22.0245 21.8643L22.2658 21.8624L22.3421 21.6335C22.352 21.6039 22.3938 21.6039 22.4038 21.6335Z" fill="white"/>
<path d="M22.4038 22.831L22.4801 23.0599L22.7214 23.0618C22.7526 23.0621 22.7656 23.1019 22.7404 23.1204L22.5463 23.2638L22.6192 23.4938C22.6286 23.5236 22.5947 23.5483 22.5692 23.5301L22.3729 23.3898L22.1767 23.5301C22.1512 23.5483 22.1174 23.5236 22.1267 23.4938L22.1995 23.2638L22.0054 23.1204C21.9803 23.1019 21.9933 23.0621 22.0245 23.0618L22.2658 23.0599L22.3421 22.831C22.352 22.8014 22.3938 22.8014 22.4038 22.831Z" fill="white"/>
<path d="M22.4038 24.0286L22.4801 24.2575L22.7214 24.2593C22.7526 24.2596 22.7656 24.2994 22.7404 24.318L22.5463 24.4613L22.6192 24.6914C22.6286 24.7211 22.5947 24.7458 22.5692 24.7276L22.3729 24.5873L22.1767 24.7276C22.1512 24.7458 22.1174 24.7211 22.1267 24.6914L22.1995 24.4613L22.0054 24.318C21.9803 24.2994 21.9933 24.2596 22.0245 24.2593L22.2658 24.2575L22.3421 24.0286C22.352 23.9989 22.3938 23.9989 22.4038 24.0286Z" fill="white"/>
</g>
<defs>
<clipPath id="clip0_62_632">
<rect width="40" height="40" fill="white"/>
</clipPath>
</defs>
</svg>
