<svg width="32" height="32" viewBox="0 0 32 32" fill="none" xmlns="http://www.w3.org/2000/svg">
<g id="artificial-intelligence 1" clip-path="url(#clip0_321_28356)">
<g id="Group">
<path id="Vector" d="M24.5612 6.01538L22.7804 7.78738C22.7438 7.82257 22.6276 7.87057 22.5769 7.87144H18.625V8.80894H22.5769C22.8749 8.80894 23.2304 8.66219 23.4416 8.45207L25.3008 6.60194C24.9969 6.48807 24.7386 6.28082 24.5612 6.01538Z" fill="#004777"/>
<path id="Vector_2" d="M23.2696 27.8294L22.0575 26.6232C21.8463 26.4131 21.4908 26.2664 21.1929 26.2664H18.625V27.2039H21.1927C21.2436 27.2047 21.3597 27.2527 21.3962 27.2878L22.5591 28.445C22.7249 28.1727 22.9734 27.956 23.2696 27.8294Z" fill="#004777"/>
<path id="Vector_3" d="M22.7746 23.292C22.7746 23.1286 22.8008 22.9711 22.8487 22.8232H18.625V23.7607H22.8486C22.8007 23.6129 22.7746 23.4554 22.7746 23.292Z" fill="#004777"/>
<path id="Vector_4" d="M23.5759 19.2144C23.5759 19.0509 23.6021 18.8934 23.65 18.7456H18.625V19.6831H23.6499C23.6021 19.5352 23.5759 19.3778 23.5759 19.2144Z" fill="#004777"/>
<path id="Vector_5" d="M20 14.8652C20 14.7017 20.0261 14.5443 20.0741 14.3965H18.625V15.334H20.0741C20.0261 15.1861 20 15.0287 20 14.8652Z" fill="#004777"/>
<path id="Vector_6" d="M28.4159 14.8283L24.68 11.1108C24.4688 10.9007 24.1133 10.7539 23.8154 10.7539H18.625V11.6914H23.8152C23.866 11.6923 23.9822 11.7402 24.0187 11.7753L27.7522 15.4904C27.8988 15.2068 28.1314 14.9747 28.4159 14.8283Z" fill="#004777"/>
<path id="Vector_7" d="M19.7879 4.2998C19.7879 4.1363 19.8141 3.97887 19.8619 3.83105H18.625V4.76855H19.8619C19.814 4.62074 19.7879 4.4633 19.7879 4.2998Z" fill="#004777"/>
</g>
<path id="Vector_8" d="M21.3224 5.89221C20.4414 5.89221 19.7246 5.17789 19.7246 4.29983C19.7246 3.42183 20.4414 2.70752 21.3224 2.70752C22.2035 2.70752 22.9203 3.42183 22.9203 4.29983C22.9203 5.17796 22.2035 5.89221 21.3224 5.89221Z" fill="#FFC502"/>
<path id="Vector_9" d="M11.8114 2.67038C11.6221 2.63894 11.4281 2.62181 11.2299 2.62181C9.28956 2.62181 7.71656 4.18706 7.71656 6.11788C7.71656 6.28788 7.72937 6.45481 7.75294 6.61831C7.41562 6.51119 7.05631 6.45275 6.68325 6.45275C4.74288 6.45275 3.16994 8.018 3.16994 9.94881C3.16994 10.5225 3.30969 11.0634 3.55581 11.541C1.91269 12.3438 0.78125 14.0245 0.78125 15.9688C0.78125 17.9206 1.92131 19.6074 3.57481 20.4062C3.31662 20.8929 3.16988 21.447 3.16988 22.0355C3.16988 23.9663 4.74281 25.5315 6.68319 25.5315C7.05475 25.5315 7.41256 25.4736 7.74862 25.3673C7.72819 25.5204 7.7165 25.6762 7.7165 25.8347C7.7165 27.7656 9.2895 29.3309 11.2299 29.3309C11.4297 29.3309 11.6254 29.3134 11.8161 29.2814C12.2634 30.5723 13.494 31.5 14.9431 31.5C16.7699 31.5 18.2508 30.0264 18.2508 28.2086V3.72887C18.2508 1.91106 16.7699 0.4375 14.9431 0.4375C13.4887 0.4375 12.2544 1.37206 11.8114 2.67038Z" fill="#EF5050"/>
<g id="Group_2" opacity="0.1">
<path id="Vector_10" d="M1.71791 17.0938C1.71791 15.3191 2.71391 13.73 4.31709 12.9467C4.39266 12.9099 4.45009 12.8441 4.47659 12.7644C4.50303 12.6846 4.49622 12.5976 4.45772 12.5229C4.22472 12.0707 4.10659 11.5831 4.10659 11.0738C4.10659 9.31837 5.54247 7.89025 7.30741 7.89025C7.63903 7.89025 7.96716 7.94106 8.28253 8.04119C8.31353 8.051 8.34547 8.05581 8.37716 8.05581C8.45016 8.05581 8.52197 8.03025 8.57922 7.98169C8.66128 7.91219 8.70178 7.80525 8.68647 7.69881C8.66447 7.546 8.65328 7.39262 8.65328 7.24294C8.65328 5.4875 10.0892 4.05931 11.8542 4.05931C12.0287 4.05931 12.2072 4.07425 12.3843 4.10369C12.4016 4.10656 12.4188 4.10794 12.4357 4.10794C12.5674 4.10794 12.6875 4.02444 12.7313 3.89631C13.1438 2.68731 14.2835 1.875 15.5673 1.875C16.7232 1.875 17.7277 2.53 18.2268 3.48612C18.0867 1.79669 16.6653 0.46875 14.9313 0.46875C13.4769 0.46875 12.2426 1.40331 11.7996 2.70163C11.6103 2.67019 11.4163 2.65306 11.2182 2.65306C9.27778 2.65306 7.70478 4.21831 7.70478 6.14913C7.70478 6.31913 7.71759 6.48606 7.74116 6.64956C7.40384 6.54244 7.04453 6.484 6.67147 6.484C4.73109 6.484 3.15816 8.04925 3.15816 9.98006C3.15816 10.5538 3.29791 11.0946 3.54403 11.5723C1.90091 12.3749 0.769531 14.0557 0.769531 16C0.769531 17.5566 1.49509 18.9439 2.62747 19.8475C2.04572 19.0691 1.71791 18.1128 1.71791 17.0938Z" fill="#00003F"/>
</g>
<g id="Group_3">
<path id="Vector_11" d="M7.4705 17.6375C7.72944 17.6375 7.93925 17.4277 7.93925 17.1688C7.93925 16.9099 7.72944 16.7 7.4705 16.7H6.126C5.26819 16.7 4.57031 16.0066 4.57031 15.1543C4.57031 14.8954 4.3605 14.6855 4.10156 14.6855C3.84262 14.6855 3.63281 14.8954 3.63281 15.1543C3.63281 16.5235 4.75125 17.6375 6.126 17.6375H7.4705Z" fill="#FB8276"/>
<path id="Vector_12" d="M5.47266 22.5583C5.47266 22.8173 5.68247 23.0271 5.94141 23.0271C6.20034 23.0271 6.41016 22.8173 6.41016 22.5583C6.41016 21.7579 7.06559 21.1067 7.87134 21.1067H11.8758C12.1348 21.1067 12.3446 20.8969 12.3446 20.6379C12.3446 20.379 12.1348 20.1692 11.8758 20.1692H7.87134C6.54872 20.1692 5.47266 21.2409 5.47266 22.5583Z" fill="#FB8276"/>
<path id="Vector_13" d="M13.752 21.1067H15.6963C15.9552 21.1067 16.165 20.8969 16.165 20.6379C16.165 20.379 15.9551 20.1692 15.6963 20.1692H13.752C13.493 20.1692 13.2832 20.379 13.2832 20.6379C13.2832 20.8969 13.493 21.1067 13.752 21.1067Z" fill="#FB8276"/>
<path id="Vector_14" d="M9.48633 13.9606C9.22739 13.9606 9.01758 14.1704 9.01758 14.4293C9.01758 14.6883 9.22739 14.8981 9.48633 14.8981C11.3515 14.8981 12.869 13.3871 12.869 11.5298C12.869 11.2709 12.6591 11.061 12.4002 11.061C12.1413 11.061 11.9315 11.2709 11.9315 11.5298C11.9315 12.8702 10.8346 13.9606 9.48633 13.9606Z" fill="#FB8276"/>
<path id="Vector_15" d="M11.5354 3.97471C10.4156 3.90283 9.44473 4.75177 9.3721 5.86777C9.35529 6.12614 9.5511 6.34914 9.80941 6.36602C9.81979 6.36671 9.8301 6.36702 9.84035 6.36702C10.0854 6.36702 10.2915 6.17664 10.3077 5.92871C10.3467 5.32821 10.8704 4.87214 11.4751 4.91027C11.7337 4.92752 11.9564 4.73102 11.973 4.47264C11.9897 4.21427 11.7937 3.99133 11.5354 3.97471Z" fill="#FB8276"/>
<path id="Vector_16" d="M9.95898 22.2566C9.70005 22.2566 9.49023 22.4664 9.49023 22.7253C9.49023 22.9843 9.70005 23.1941 9.95898 23.1941C10.733 23.1941 11.3628 23.8197 11.3628 24.5885C11.3628 25.3575 10.733 25.9832 9.95898 25.9832C9.70005 25.9832 9.49023 26.193 9.49023 26.4519C9.49023 26.7108 9.70005 26.9207 9.95898 26.9207C11.25 26.9207 12.3003 25.8745 12.3003 24.5885C12.3003 23.3028 11.25 22.2566 9.95898 22.2566Z" fill="#FB8276"/>
<path id="Vector_17" d="M14.7559 14.3955C14.4969 14.3955 14.2871 14.6053 14.2871 14.8643C14.2871 15.1232 14.4969 15.333 14.7559 15.333C15.8947 15.333 16.8211 14.41 16.8211 13.2756C16.8211 12.1412 15.8947 11.2183 14.7559 11.2183C14.4969 11.2183 14.2871 11.4281 14.2871 11.687C14.2871 11.9459 14.4969 12.1558 14.7559 12.1558C15.3777 12.1558 15.8836 12.6581 15.8836 13.2756C15.8836 13.8931 15.3777 14.3955 14.7559 14.3955Z" fill="#FB8276"/>
<path id="Vector_18" d="M6.49805 13.9642C8.0833 13.9642 9.37305 12.6798 9.37305 11.101C9.37305 9.52235 8.0833 8.23804 6.49805 8.23804C6.23911 8.23804 6.0293 8.44785 6.0293 8.70679C6.0293 8.96572 6.23911 9.17554 6.49805 9.17554C7.56642 9.17554 8.43555 10.0393 8.43555 11.101C8.43555 12.1628 7.56642 13.0267 6.49805 13.0267C6.23911 13.0267 6.0293 13.2365 6.0293 13.4954C6.0293 13.7543 6.23917 13.9642 6.49805 13.9642Z" fill="#FB8276"/>
<path id="Vector_19" d="M14.9313 0C13.4427 0 12.1073 0.867625 11.498 2.19431C11.4043 2.18763 11.3108 2.18425 11.2182 2.18425C9.05391 2.18425 7.28734 3.91213 7.23716 6.05525C7.05028 6.02863 6.86128 6.01519 6.67147 6.01519C4.47572 6.01519 2.68941 7.79381 2.68941 9.98C2.68941 10.4599 2.77359 10.9242 2.94009 11.3659C1.30109 12.3384 0.300781 14.0756 0.300781 16C0.300781 17.9014 1.32909 19.6769 2.95534 20.6425C2.78053 21.0952 2.68947 21.5799 2.68947 22.0667C2.68947 24.2529 4.47578 26.0314 6.67153 26.0314C6.86172 26.0314 7.05097 26.018 7.23803 25.9913C7.30466 28.1198 9.06453 29.8308 11.2182 29.8308C11.3131 29.8308 11.4088 29.8272 11.5048 29.8202C12.1174 31.1382 13.4501 32 14.9313 32C17.0137 32 18.7078 30.3133 18.7078 28.2399V3.76012C18.7078 1.68675 17.0137 0 14.9313 0ZM17.7703 3.81219H16.8687C16.6098 3.81219 16.4 4.022 16.4 4.28094C16.4 4.53988 16.6098 4.74969 16.8687 4.74969H17.7703V7.8715H13.979C13.1212 7.8715 12.4233 7.17812 12.4233 6.32587C12.4233 6.06694 12.2135 5.85712 11.9546 5.85712C11.6957 5.85712 11.4858 6.06694 11.4858 6.32587C11.4858 7.69506 12.6043 8.809 13.979 8.809H17.7703V16.7H10.1667C9.90772 16.7 9.69791 16.9098 9.69791 17.1688C9.69791 17.4277 9.90772 17.6375 10.1667 17.6375H17.7703V24.0735H16.3218C14.9992 24.0735 13.9232 25.1452 13.9232 26.4626C13.9232 26.7215 14.133 26.9313 14.3919 26.9313C14.6508 26.9313 14.8607 26.7215 14.8607 26.4626C14.8607 25.6622 15.5161 25.011 16.3218 25.011H17.7703V28.2399C17.7703 28.3135 17.7665 28.3862 17.761 28.4584H16.8687C16.6098 28.4584 16.4 28.6682 16.4 28.9272C16.4 29.1861 16.6098 29.3959 16.8687 29.3959H17.5202C17.0752 30.3773 16.0825 31.0625 14.9313 31.0625C13.8973 31.0625 12.9602 30.5046 12.4627 29.6329C13.0289 29.448 13.55 29.1371 13.989 28.7136C14.1753 28.5339 14.1806 28.2371 14.0008 28.0509C13.8211 27.8644 13.5243 27.8592 13.3381 28.0389C12.8962 28.4653 12.3453 28.7426 11.75 28.8466V28.8484C11.7423 28.8493 11.3853 28.8934 11.2182 28.8934C9.53934 28.8934 8.17353 27.5353 8.17353 25.866C8.17353 25.8233 8.17609 25.779 8.17816 25.7351C8.55653 25.5811 8.91197 25.3704 9.22897 25.1057C9.42772 24.9399 9.45428 24.6442 9.28834 24.4455C9.12241 24.2467 8.82672 24.2201 8.62809 24.3861C8.24709 24.7042 7.79403 24.9224 7.31241 25.0256V25.0258C7.10234 25.0707 6.88778 25.0939 6.67141 25.0939C4.99266 25.0939 3.62684 23.7359 3.62684 22.0667C3.62684 21.5694 3.74472 21.0951 3.97709 20.6571C3.98266 20.6466 3.99434 20.6249 3.99434 20.6249C4.27003 20.1187 4.68997 19.6917 5.21759 19.4059C5.44528 19.2826 5.52984 18.9982 5.40653 18.7706C5.28328 18.5428 4.99872 18.4581 4.77116 18.5816C4.21122 18.8849 3.74447 19.3103 3.39534 19.8137C2.05509 19.0074 1.23828 17.5818 1.23828 16C1.23828 14.6222 1.86009 13.3606 2.90809 12.5253C2.99991 12.4546 3.09309 12.3866 3.18753 12.322C3.90953 11.8279 4.78353 11.5384 5.72428 11.5384C5.98322 11.5384 6.19303 11.3286 6.19303 11.0696C6.19303 10.8107 5.98322 10.6009 5.72428 10.6009C5.04328 10.6009 4.39141 10.7268 3.79041 10.956C3.68266 10.6435 3.62703 10.3169 3.62703 9.98006C3.62703 8.31075 4.99278 6.95275 6.67159 6.95275C6.98716 6.95275 7.29934 7.00106 7.59947 7.09637C7.75328 7.14519 7.92134 7.1115 8.04441 7.00712C8.16753 6.90275 8.22822 6.7425 8.20522 6.58275C8.18428 6.43725 8.17366 6.29138 8.17366 6.14913C8.17366 4.47988 9.53947 3.12181 11.2183 3.12181C11.3832 3.12181 11.5517 3.13594 11.7193 3.1635C13.1605 3.40188 14.2628 4.64956 14.2628 6.14913C14.2628 6.40806 14.4727 6.61788 14.7316 6.61788C14.9905 6.61788 15.2003 6.40806 15.2003 6.14913C15.2003 4.39275 14.0469 2.90044 12.4548 2.38131C12.9497 1.50119 13.8903 0.9375 14.9313 0.9375C16.4967 0.9375 17.7703 2.20375 17.7703 3.76012V3.81219Z" fill="#FB8276"/>
</g>
<g id="Group_4">
<path id="Vector_20" d="M28.5354 11.4015C27.6542 11.4015 26.9375 10.6872 26.9375 9.80911C26.9375 8.93111 27.6543 8.2168 28.5354 8.2168C29.4164 8.2168 30.1332 8.93111 30.1332 9.80911C30.1332 10.6872 29.4164 11.4015 28.5354 11.4015Z" fill="#FFC502"/>
<path id="Vector_21" d="M30.1018 23.3983C29.2207 23.3983 28.5039 22.684 28.5039 21.806C28.5039 20.928 29.2207 20.2136 30.1018 20.2136C30.9828 20.2136 31.6996 20.9279 31.6996 21.806C31.6996 22.6841 30.9828 23.3983 30.1018 23.3983Z" fill="#FFC502"/>
<path id="Vector_22" d="M21.5354 16.4576C20.6543 16.4576 19.9375 15.7433 19.9375 14.8653C19.9375 13.9873 20.6543 13.2729 21.5354 13.2729C22.4165 13.2729 23.1332 13.9873 23.1332 14.8653C23.1333 15.7434 22.4165 16.4576 21.5354 16.4576Z" fill="#FFC502"/>
</g>
<g id="Group_5">
<path id="Vector_23" d="M24.3108 24.8842C23.4296 24.8842 22.7129 24.1699 22.7129 23.2918C22.7129 22.4138 23.4297 21.6995 24.3108 21.6995C25.1919 21.6995 25.9086 22.4138 25.9086 23.2918C25.9086 24.17 25.1919 24.8842 24.3108 24.8842Z" fill="#33C7CA"/>
<path id="Vector_24" d="M25.84 6.76202C24.9589 6.76202 24.2422 6.0477 24.2422 5.16964C24.2422 4.29164 24.959 3.57739 25.84 3.57739C26.7211 3.57739 27.4379 4.2917 27.4379 5.16964C27.4379 6.04777 26.7211 6.76202 25.84 6.76202Z" fill="#33C7CA"/>
<path id="Vector_25" d="M29.1194 17.7804C28.2382 17.7804 27.5215 17.0661 27.5215 16.188C27.5215 15.31 28.2383 14.5957 29.1194 14.5957C30.0005 14.5957 30.7172 15.31 30.7172 16.188C30.7172 17.0661 30.0004 17.7804 29.1194 17.7804Z" fill="#33C7CA"/>
<path id="Vector_26" d="M28.0627 28.2912C27.1816 28.2912 26.4648 27.5769 26.4648 26.6988C26.4648 25.8208 27.1817 25.1064 28.0627 25.1064C28.9438 25.1064 29.6606 25.8208 29.6606 26.6988C29.6606 27.5769 28.9438 28.2912 28.0627 28.2912Z" fill="#33C7CA"/>
</g>
<g id="Group_6">
<path id="Vector_27" d="M25.1115 20.8068C24.2304 20.8068 23.5137 20.0925 23.5137 19.2144C23.5137 18.3364 24.2305 17.6221 25.1115 17.6221C25.9927 17.6221 26.7094 18.3364 26.7094 19.2144C26.7095 20.0925 25.9927 20.8068 25.1115 20.8068Z" fill="#FFC502"/>
<path id="Vector_28" d="M23.8733 30.8285C22.9921 30.8285 22.2754 30.1142 22.2754 29.2362C22.2754 28.3581 22.9922 27.6438 23.8733 27.6438C24.7544 27.6438 25.4711 28.3581 25.4711 29.2362C25.4711 30.1142 24.7544 30.8285 23.8733 30.8285Z" fill="#FFC502"/>
</g>
</g>
<defs>
<clipPath id="clip0_321_28356">
<rect width="32" height="32" fill="white"/>
</clipPath>
</defs>
</svg>
