<svg width="32" height="32" viewBox="0 0 32 32" fill="none" xmlns="http://www.w3.org/2000/svg">
<g id="shuttle 1" clip-path="url(#clip0_321_28391)">
<path id="Vector" d="M13.8623 8.72042C13.6797 8.41549 13.3403 8.24043 12.9858 8.26736L5.36744 8.85586C4.59613 8.91548 3.90907 9.31973 3.48233 9.9651L0.285165 14.8008C-0.038395 15.2902 -0.0898946 15.9027 0.147479 16.4392C0.384789 16.9757 0.872598 17.3495 1.45228 17.4393L7.62973 18.3961C7.67779 18.4035 7.72579 18.4072 7.77342 18.4072C8.08985 18.4072 8.38923 18.2467 8.56316 17.9746L13.8479 9.70698C14.0394 9.40742 14.0449 9.02542 13.8623 8.72042Z" fill="#E45A6E"/>
<path id="Vector_2" d="M23.2785 18.1376C22.9735 17.955 22.5915 17.9605 22.292 18.152L14.0244 23.4367C13.7114 23.6368 13.546 24.003 13.6029 24.3702L14.5596 30.5476C14.6494 31.1274 15.0233 31.6151 15.5598 31.8525C15.783 31.9512 16.0192 31.9998 16.2543 31.9998C16.5844 31.9998 16.9123 31.9037 17.1981 31.7148L22.0339 28.5176C22.6793 28.0909 23.0836 27.4038 23.1431 26.6325L23.7316 19.0141C23.759 18.6597 23.5835 18.3203 23.2785 18.1376Z" fill="#D82E44"/>
<path id="Vector_3" d="M12.0541 25.7672C12.4272 26.1403 12.9574 26.3149 13.4778 26.2278C21.1098 24.9517 27.149 18.6327 29.4482 14.1876C32.0012 9.25176 32.0958 4.0358 31.9624 1.58957C31.9166 0.751324 31.2484 0.0831416 30.4102 0.0373919C27.964 -0.0959821 22.7481 -0.00142025 17.8122 2.55162C13.3671 4.85079 7.04812 10.8901 5.77201 18.522C5.68501 19.0424 5.85951 19.5726 6.23263 19.9457L12.0541 25.7672Z" fill="#F1F1FB"/>
<path id="Vector_4" d="M31.4827 0.516357L9.14258 22.8565L12.0533 25.7672C12.4264 26.1403 12.9566 26.3148 13.477 26.2278C21.109 24.9517 27.1482 18.6328 29.4474 14.1877C32.0005 9.25185 32.095 4.03589 31.9616 1.58966C31.9387 1.17054 31.7602 0.793918 31.4827 0.516357Z" fill="#D7D6FB"/>
<path id="Vector_5" d="M21.9199 14.7648C20.7194 14.7649 19.5193 14.308 18.6054 13.3941C17.72 12.5088 17.2324 11.3316 17.2324 10.0796C17.2324 8.8275 17.72 7.65032 18.6054 6.76502C20.433 4.93741 23.4067 4.93735 25.2344 6.76502C26.1198 7.65032 26.6073 8.8275 26.6073 10.0796C26.6073 11.3316 26.1198 12.5088 25.2344 13.3941C24.3207 14.3078 23.1201 14.7647 21.9199 14.7648Z" fill="#466288"/>
<path id="Vector_6" d="M5.77201 18.522C5.68501 19.0425 5.85951 19.5727 6.23263 19.9458L12.0541 25.7672C12.4272 26.1404 12.9574 26.3149 13.4778 26.2279C15.1385 25.9502 16.7236 25.4335 18.2113 24.7496L7.25025 13.7886C6.56631 15.2763 6.04969 16.8614 5.77201 18.522Z" fill="#466288"/>
<path id="Vector_7" d="M0.957 26.3709C1.19687 26.3709 1.43687 26.2793 1.61987 26.0963L4.68069 23.0355C5.04681 22.6694 5.04681 22.0758 4.68069 21.7097C4.31463 21.3435 3.72106 21.3435 3.35487 21.7097L0.294125 24.7705C-0.072 25.1365 -0.072 25.7302 0.294125 26.0963C0.477187 26.2794 0.717063 26.3709 0.957 26.3709Z" fill="#FDB43A"/>
<path id="Vector_8" d="M7.48503 24.5148C7.11897 24.1487 6.52534 24.1487 6.15922 24.5148L0.274594 30.3994C-0.0915312 30.7655 -0.0915312 31.3591 0.274594 31.7252C0.457656 31.9083 0.697594 31.9998 0.937531 31.9998C1.17747 31.9998 1.41741 31.9082 1.60041 31.7252L7.48503 25.8405C7.85116 25.4745 7.85116 24.8808 7.48503 24.5148Z" fill="#FDB43A"/>
<path id="Vector_9" d="M10.2901 27.32C9.924 26.9539 9.33038 26.9539 8.96425 27.32L5.9035 30.3807C5.53738 30.7468 5.53738 31.3404 5.9035 31.7065C6.08656 31.8896 6.3265 31.9811 6.56638 31.9811C6.80625 31.9811 7.04625 31.8896 7.22925 31.7065L10.2901 28.6457C10.6562 28.2796 10.6562 27.686 10.2901 27.32Z" fill="#F57A21"/>
<path id="Vector_10" d="M0.275391 31.7251C0.458453 31.9082 0.698391 31.9997 0.938328 31.9997C1.17827 31.9997 1.4182 31.9081 1.6012 31.7251L7.48583 25.8405C7.85195 25.4744 7.85195 24.8808 7.48583 24.5146L0.275391 31.7251Z" fill="#F57A21"/>
<path id="Vector_11" d="M9.14258 22.8565L12.0533 25.7672C12.4264 26.1403 12.9566 26.3148 13.477 26.2278C15.1377 25.9501 16.7228 25.4335 18.2106 24.7496L12.73 19.269L9.14258 22.8565Z" fill="#354A67"/>
<path id="Vector_12" d="M18.6055 13.394C19.5194 14.3079 20.7195 14.7648 21.92 14.7647C23.1202 14.7646 24.3208 14.3076 25.2345 13.394C26.1198 12.5086 26.6074 11.3315 26.6074 10.0794C26.6074 8.82738 26.1198 7.6502 25.2345 6.76489L18.6055 13.394Z" fill="#354A67"/>
<path id="Vector_13" d="M21.9199 7.26831C21.1997 7.26831 20.4795 7.54244 19.9312 8.09075C19.4 8.62194 19.1074 9.32819 19.1074 10.0794C19.1074 10.8307 19.4 11.5369 19.9312 12.0681C21.0278 13.1647 22.8122 13.1647 23.9087 12.0681C24.4399 11.5369 24.7325 10.8306 24.7325 10.0794C24.7325 9.32812 24.4399 8.62187 23.9087 8.09069C23.3604 7.54244 22.6402 7.26831 21.9199 7.26831Z" fill="#4BBEFD"/>
<path id="Vector_14" d="M23.9091 8.09082L19.9316 12.0683C21.0282 13.1648 22.8126 13.1649 23.9091 12.0683C24.4403 11.537 24.7328 10.8308 24.7328 10.0795C24.7328 9.32826 24.4403 8.62201 23.9091 8.09082Z" fill="#0590FB"/>
</g>
<defs>
<clipPath id="clip0_321_28391">
<rect width="32" height="32" fill="white"/>
</clipPath>
</defs>
</svg>
