<svg width="32" height="32" viewBox="0 0 32 32" fill="none" xmlns="http://www.w3.org/2000/svg">
<g id="Frame 1000002851">
<g id="Icons">
<g id="Group">
<g id="Group_2">
<path id="Vector" d="M24.3645 19.4286C23.0794 22.1286 20.3342 24 17.1445 24C12.7262 24 9.14453 20.4183 9.14453 16C9.14453 11.5817 12.7262 8 17.1445 8C18.3731 8 19.5325 8.28514 20.5731 8.78V8H25.1445V5.71429H29.4862L26.8422 3.07029L24.2691 5.64343C22.8417 4.65943 21.2011 3.96514 19.4308 3.64V0H14.8594V3.64C13.0891 3.96514 11.4485 4.66 10.0211 5.64343L7.44796 3.07029L4.21539 6.30286L6.78853 8.876C5.80396 10.3029 5.10967 11.944 4.78453 13.7143H1.14453V18.2857H4.78453C5.11025 20.056 5.80453 21.6966 6.78796 23.124L4.21482 25.6971L7.44739 28.9297L10.0205 26.3566C11.448 27.3406 13.0885 28.0349 14.8588 28.3606V32H19.4302V28.36C21.2005 28.0343 22.8411 27.34 24.2685 26.356L26.8417 28.9291L30.0742 25.6966L27.5011 23.1234C28.2691 22.0086 28.8582 20.7629 29.2354 19.428L24.3645 19.4286Z" fill="#FAB400"/>
</g>
<g id="Group_3">
<g id="Group_4">
<path id="Vector_2" d="M12.3067 5.64343C13.7342 4.65943 15.3747 3.96514 17.145 3.63943V0H14.8593V3.64C13.6559 3.86114 12.5142 4.25657 11.457 4.79371L12.3067 5.64343Z" fill="#DC9600"/>
</g>
</g>
<g id="Group_5">
<g id="Group_6">
<path id="Vector_3" d="M4.78456 13.7143H7.07027C7.39599 11.944 8.09027 10.3035 9.0737 8.87603L6.50056 6.30288L8.59027 4.21317L7.44741 3.07031L4.21484 6.30288L6.78799 8.87603C5.80456 10.3035 5.11027 11.944 4.78456 13.7143Z" fill="#DC9600"/>
</g>
</g>
<g id="Group_7">
<g id="Group_8">
<path id="Vector_4" d="M12.3067 26.3567L11.457 27.2064C12.5142 27.7435 13.6559 28.139 14.8593 28.3601V32.0001H17.145V28.3607C15.3747 28.035 13.7342 27.3407 12.3067 26.3567Z" fill="#DC9600"/>
</g>
</g>
<g id="Group_9">
<g id="Group_10">
<path id="Vector_5" d="M1.14453 13.7144H3.43025V18.2858H1.14453V13.7144Z" fill="#DC9600"/>
</g>
</g>
<g id="Group_11">
<g id="Group_12">
<path id="Vector_6" d="M6.50056 25.6978L9.0737 23.1247C8.09027 21.6972 7.39542 20.0567 7.07027 18.2864H4.78456C5.11027 20.0567 5.80456 21.6978 6.78799 23.1247L4.21484 25.6978L7.44742 28.9304L8.59027 27.7875L6.50056 25.6978Z" fill="#DC9600"/>
</g>
</g>
<g id="Group_13">
<path id="Vector_7" d="M11.4297 17.1428H30.8583V18.2857H11.4297V17.1428Z" fill="#505050"/>
</g>
<g id="Group_14">
<path id="Vector_8" d="M21.7168 9.14282H25.1454V17.1428H21.7168V9.14282Z" fill="#3CC8B4"/>
</g>
<g id="Group_15">
<path id="Vector_9" d="M21.7168 9.14282H22.8597V17.1428H21.7168V9.14282Z" fill="#1EAA96"/>
</g>
<g id="Group_16">
<path id="Vector_10" d="M18.2871 23.909C18.6614 23.9628 19.0408 23.9999 19.43 23.9999C22.6197 23.9999 25.3648 22.1285 26.65 19.4285H24.3694C23.2403 21.797 20.9808 23.5228 18.2871 23.909Z" fill="#DC9600"/>
</g>
<g id="Group_17">
<path id="Vector_11" d="M26.2871 6.85718H29.7157V17.1429H26.2871V6.85718Z" fill="#64C8F0"/>
</g>
<g id="Group_18">
<path id="Vector_12" d="M26.2871 6.85718H27.43V17.1429H26.2871V6.85718Z" fill="#46AAD2"/>
</g>
<g id="Group_19">
<path id="Vector_13" d="M12.5723 13.7144H16.0008V17.1429H12.5723V13.7144Z" fill="#FA6450"/>
</g>
<g id="Group_20">
<path id="Vector_14" d="M12.5723 13.7144H13.7151V17.1429H12.5723V13.7144Z" fill="#DC4632"/>
</g>
<g id="Group_21">
<path id="Vector_15" d="M17.1445 11.4285H20.5731V17.1428H17.1445V11.4285Z" fill="#FAB400"/>
</g>
<g id="Group_22">
<path id="Vector_16" d="M17.1445 11.4285H18.2874V17.1428H17.1445V11.4285Z" fill="#DC9600"/>
</g>
</g>
</g>
</g>
</svg>
