<svg width="30" height="32" viewBox="0 0 30 32" fill="none" xmlns="http://www.w3.org/2000/svg">
<g id="Frame 1000002853">
<g id="Group">
<g id="Group_2">
<path id="Vector" fill-rule="evenodd" clip-rule="evenodd" d="M5.52539 26.4086V23.4849H20.9742V26.4086C20.9742 28.4803 17.5159 30.1599 13.2498 30.1599C8.98374 30.1599 5.52539 28.4803 5.52539 26.4086Z" fill="#F19A00"/>
<path id="Vector_2" fill-rule="evenodd" clip-rule="evenodd" d="M7.50977 23.4847H20.9749V26.4084C20.9749 28.4801 17.5166 30.1597 13.2505 30.1597C11.2768 30.1597 9.47633 29.8 8.11091 29.2085C7.72384 28.7616 7.50977 28.2706 7.50977 27.7553V23.4846V23.4847Z" fill="#F9AC00"/>
<path id="Vector_3" fill-rule="evenodd" clip-rule="evenodd" d="M5.52539 23.4848V20.561H20.9742V23.4848C20.9742 25.5566 17.5159 27.2361 13.2498 27.2361C8.98374 27.2361 5.52539 25.5566 5.52539 23.4848Z" fill="#FDC72E"/>
<path id="Vector_4" fill-rule="evenodd" clip-rule="evenodd" d="M7.50977 20.561H20.9749V23.4848C20.9749 25.5566 17.5166 27.2361 13.2505 27.2361C10.9717 27.2361 8.92364 26.7568 7.50977 25.9945V20.561Z" fill="#FCDB35"/>
<path id="Vector_5" fill-rule="evenodd" clip-rule="evenodd" d="M5.52539 20.5609V17.6372H20.9742V20.5609C20.9742 22.6327 17.5159 24.3122 13.2498 24.3122C8.98374 24.3122 5.52539 22.6327 5.52539 20.5609Z" fill="#F19A00"/>
<path id="Vector_6" fill-rule="evenodd" clip-rule="evenodd" d="M7.50977 17.6373H20.9749V20.561C20.9749 22.6328 17.5166 24.3123 13.2505 24.3123C10.9717 24.3123 8.92364 23.8329 7.50977 23.0707V17.6372V17.6373Z" fill="#F9AC00"/>
<path id="Vector_7" fill-rule="evenodd" clip-rule="evenodd" d="M5.52539 17.6373V14.7136H20.9742V17.6373C20.9742 19.7092 17.5159 21.3886 13.2498 21.3886C8.98374 21.3886 5.52539 19.7091 5.52539 17.6373Z" fill="#FDC72E"/>
<path id="Vector_8" fill-rule="evenodd" clip-rule="evenodd" d="M7.50977 14.7134H20.9749V17.6371C20.9749 19.709 17.5166 21.3884 13.2505 21.3884C10.9717 21.3884 8.92364 20.9091 7.50977 20.1469V14.7134Z" fill="#FCDB35"/>
<path id="Vector_9" fill-rule="evenodd" clip-rule="evenodd" d="M5.52539 14.7135V11.7898H20.9742V14.7135C20.9742 16.7853 17.5159 18.4648 13.2498 18.4648C8.98374 18.4648 5.52539 16.7853 5.52539 14.7135Z" fill="#F19A00"/>
<path id="Vector_10" fill-rule="evenodd" clip-rule="evenodd" d="M7.50977 11.7899H20.9749V14.7135C20.9749 16.7854 17.5166 18.4649 13.2505 18.4649C10.9717 18.4649 8.92364 17.9855 7.50977 17.2233V11.7899Z" fill="#F9AC00"/>
</g>
<path id="Vector_11" d="M13.2498 15.5412C17.5159 15.5412 20.9742 13.8617 20.9742 11.7899C20.9742 9.7181 17.5159 8.03857 13.2498 8.03857C8.98373 8.03857 5.52539 9.7181 5.52539 11.7899C5.52539 13.8617 8.98373 15.5412 13.2498 15.5412Z" fill="#FCDB35"/>
<path id="Vector_12" d="M13.2496 14.6271C17.0107 14.6271 20.0597 13.3569 20.0597 11.79C20.0597 10.2231 17.0107 8.95288 13.2496 8.95288C9.48845 8.95288 6.43945 10.2231 6.43945 11.79C6.43945 13.3569 9.48845 14.6271 13.2496 14.6271Z" fill="#F19A00"/>
<path id="Vector_13" fill-rule="evenodd" clip-rule="evenodd" d="M13.5436 8.95557C17.1683 9.0197 20.0598 10.264 20.0598 11.7898C20.0598 13.3156 17.1683 14.5599 13.5436 14.6241C9.91884 14.5599 7.02734 13.3156 7.02734 11.7898C7.02734 10.264 9.91884 9.0197 13.5436 8.95557Z" fill="#F9AC00"/>
<path id="Vector_14" fill-rule="evenodd" clip-rule="evenodd" d="M15.1103 10.602C15.1554 10.776 15.0509 10.9536 14.8769 10.9987C14.7029 11.0437 14.5253 10.9392 14.4802 10.7653C14.4636 10.7009 14.4288 10.6419 14.38 10.5887C14.2325 10.4278 13.9702 10.3204 13.6718 10.2678C13.6404 10.2623 13.6087 10.2574 13.5768 10.2531V11.5484C13.6269 11.5596 13.6752 11.5708 13.7206 11.5822C13.817 11.6063 13.9182 11.6356 14.0241 11.6707C14.3576 11.7814 14.6489 11.9325 14.8467 12.1363C15.084 12.3809 15.1909 12.6832 15.0978 13.0557C15.0926 13.0764 15.0838 13.1052 15.0715 13.1423C14.9445 13.525 14.5659 13.7809 14.0926 13.9062C13.931 13.949 13.7564 13.9772 13.5768 13.9903V14.3841C13.5768 14.5644 13.4306 14.7106 13.2503 14.7106C13.07 14.7106 12.9238 14.5644 12.9238 14.3841V13.972C12.7442 13.9486 12.5683 13.9098 12.4037 13.8552C11.9064 13.6901 11.5064 13.38 11.3819 12.91C11.3361 12.736 11.44 12.5578 11.614 12.512C11.788 12.4662 11.9662 12.5701 12.012 12.7441C12.0728 12.9736 12.308 13.1383 12.6078 13.2378C12.7077 13.271 12.8141 13.2965 12.9238 13.3147V12.0752C12.5778 11.9979 12.2339 11.9008 11.9682 11.7194C11.8729 11.6543 11.791 11.5835 11.7225 11.5086C11.5488 11.3192 11.4571 11.1041 11.441 10.885C11.4248 10.6644 11.4865 10.4463 11.6194 10.2518C11.6707 10.1767 11.7323 10.1057 11.8037 10.0402C11.9936 9.86606 12.2524 9.74197 12.5415 9.66733C12.6637 9.63579 12.7922 9.6128 12.9238 9.59837V9.19543C12.9238 9.01512 13.07 8.8689 13.2503 8.8689C13.4306 8.8689 13.5768 9.01512 13.5768 9.19543V9.59628C13.6468 9.60346 13.716 9.61306 13.7841 9.62501C14.214 9.70077 14.6091 9.87428 14.8595 10.1474C14.9786 10.2772 15.0655 10.4287 15.1103 10.602ZM12.9238 10.2542C12.8484 10.2649 12.7751 10.2792 12.7047 10.2974C12.5152 10.3464 12.353 10.4208 12.245 10.5198C12.21 10.552 12.1807 10.5853 12.1576 10.6192C12.109 10.6903 12.0861 10.7662 12.0915 10.8392C12.0969 10.9136 12.1329 10.992 12.2019 11.0674C12.2381 11.1067 12.2825 11.1449 12.3355 11.1811C12.4807 11.2803 12.6932 11.3493 12.9237 11.4062V10.2542L12.9238 10.2542ZM13.5768 13.3372C13.6989 13.3257 13.817 13.3053 13.9268 13.2762C14.1978 13.2044 14.4043 13.0887 14.4542 12.9383C14.4561 12.9324 14.4598 12.9186 14.4651 12.8976C14.496 12.774 14.4598 12.6728 14.3798 12.5904C14.2601 12.4671 14.0596 12.3677 13.82 12.2881C13.7497 12.2647 13.6678 12.2415 13.5768 12.2184V13.3372Z" fill="#FCDB35"/>
</g>
<g id="Group_3">
<g id="Group_4">
<path id="Vector_15" fill-rule="evenodd" clip-rule="evenodd" d="M3.5247 10.5013V6.40435C3.5247 6.24044 3.39102 6.10669 3.22704 6.10669H1.44268C1.27876 6.10669 1.14501 6.24037 1.14501 6.40429V10.5013H0.265861C0.158824 10.5013 0.0673301 10.5607 0.0237709 10.6584C-0.0197882 10.7562 -0.00274343 10.8639 0.0688321 10.9435L2.13786 13.243C2.18998 13.3008 2.25698 13.3307 2.33482 13.3307C2.41267 13.3307 2.47974 13.3009 2.53179 13.243L4.60082 10.9435C4.67239 10.8639 4.68944 10.7562 4.64588 10.6584C4.60232 10.5606 4.51082 10.5013 4.40385 10.5013H3.5247Z" fill="#ED1717"/>
<path id="Vector_16" fill-rule="evenodd" clip-rule="evenodd" d="M3.52419 10.5013V6.40435C3.52419 6.24044 3.39051 6.10669 3.22653 6.10669H1.99316C1.82924 6.10669 1.69549 6.24037 1.69549 6.40429V10.5013H0.914298C0.807327 10.5013 0.715768 10.5607 0.672208 10.6584C0.628649 10.7562 0.645694 10.8639 0.71727 10.9435L2.65876 13.1012L4.60024 10.9435C4.67182 10.8639 4.68886 10.7562 4.6453 10.6584C4.60174 10.5606 4.51025 10.5013 4.40328 10.5013H3.52406H3.52419Z" fill="#FF3838"/>
</g>
<g id="Group_5">
<path id="Vector_17" fill-rule="evenodd" clip-rule="evenodd" d="M14.4407 4.39458V0.2976C14.4407 0.133682 14.307 0 14.1431 0H12.3587C12.1948 0 12.061 0.133682 12.061 0.2976V4.39458H11.1819C11.0748 4.39458 10.9833 4.45401 10.9398 4.55171C10.8962 4.64947 10.9133 4.75723 10.9848 4.83677L13.0539 7.13626C13.106 7.19412 13.173 7.22403 13.2508 7.22403C13.3287 7.22403 13.3958 7.19419 13.4478 7.13626L15.5168 4.83677C15.5884 4.75723 15.6055 4.64947 15.5619 4.55171C15.5183 4.45394 15.4268 4.39458 15.3199 4.39458H14.4407Z" fill="#ED1717"/>
<path id="Vector_18" fill-rule="evenodd" clip-rule="evenodd" d="M14.4402 4.39458V0.2976C14.4402 0.133682 14.3065 0 14.1425 0H12.9092C12.7453 0 12.6115 0.133682 12.6115 0.2976V4.39458H11.8303C11.7233 4.39458 11.6318 4.45401 11.5882 4.55171C11.5447 4.64947 11.5617 4.75723 11.6333 4.83677L13.5748 6.99455L15.5163 4.83677C15.5878 4.75723 15.6049 4.64947 15.5613 4.55171C15.5178 4.45394 15.4263 4.39458 15.3193 4.39458H14.4401H14.4402Z" fill="#FF3838"/>
</g>
<g id="Group_6">
<path id="Vector_19" fill-rule="evenodd" clip-rule="evenodd" d="M25.3548 10.5013V6.40435C25.3548 6.24044 25.2211 6.10669 25.0571 6.10669H23.2728C23.1088 6.10669 22.9751 6.24037 22.9751 6.40429V10.5013H22.0959C21.9889 10.5013 21.8974 10.5607 21.8538 10.6584C21.8103 10.7562 21.8273 10.8639 21.8989 10.9435L23.9679 13.243C24.0201 13.3008 24.0871 13.3307 24.1649 13.3307C24.2427 13.3307 24.3098 13.3009 24.3619 13.243L26.4309 10.9435C26.5025 10.8639 26.5195 10.7562 26.476 10.6584C26.4324 10.5606 26.3409 10.5013 26.2339 10.5013H25.3548Z" fill="#ED1717"/>
<path id="Vector_20" fill-rule="evenodd" clip-rule="evenodd" d="M25.3543 10.5013V6.40435C25.3543 6.24044 25.2206 6.10669 25.0566 6.10669H23.8232C23.6593 6.10669 23.5256 6.24037 23.5256 6.40429V10.5013H22.7444C22.6374 10.5013 22.5458 10.5607 22.5023 10.6584C22.4587 10.7562 22.4758 10.8639 22.5473 10.9435L24.4888 13.1012L26.4303 10.9435C26.5019 10.8639 26.5189 10.7562 26.4754 10.6584C26.4318 10.5606 26.3403 10.5013 26.2334 10.5013H25.3542H25.3543Z" fill="#FF3838"/>
</g>
</g>
<g id="Group_7">
<g id="Group_8">
<path id="Vector_21" fill-rule="evenodd" clip-rule="evenodd" d="M14.3164 28.2486V25.325H29.7652V28.2486C29.7652 30.3204 26.3069 32 22.0408 32C17.7748 32 14.3164 30.3204 14.3164 28.2486Z" fill="#FDC72E"/>
<path id="Vector_22" fill-rule="evenodd" clip-rule="evenodd" d="M16.3008 25.325H29.7659V28.2487C29.7659 30.3205 26.3076 32 22.0415 32C19.7627 32 17.7147 31.5207 16.3008 30.7584V25.325V25.325Z" fill="#FCDB35"/>
<path id="Vector_23" fill-rule="evenodd" clip-rule="evenodd" d="M14.3164 25.3251V22.4014H29.7652V25.3251C29.7652 27.3968 26.3069 29.0764 22.0408 29.0764C17.7748 29.0764 14.3164 27.3968 14.3164 25.3251Z" fill="#F19A00"/>
<path id="Vector_24" fill-rule="evenodd" clip-rule="evenodd" d="M16.3008 22.4012H29.7659V25.3249C29.7659 27.3966 26.3076 29.0762 22.0415 29.0762C19.7627 29.0762 17.7147 28.5968 16.3008 27.8346V22.4011V22.4012Z" fill="#F9AC00"/>
</g>
<path id="Vector_25" d="M22.0408 26.1525C26.3069 26.1525 29.7652 24.473 29.7652 22.4012C29.7652 20.3294 26.3069 18.6499 22.0408 18.6499C17.7747 18.6499 14.3164 20.3294 14.3164 22.4012C14.3164 24.473 17.7747 26.1525 22.0408 26.1525Z" fill="#FCDB35"/>
<path id="Vector_26" d="M22.0406 25.2384C25.8017 25.2384 28.8507 23.9682 28.8507 22.4013C28.8507 20.8344 25.8017 19.5642 22.0406 19.5642C18.2795 19.5642 15.2305 20.8344 15.2305 22.4013C15.2305 23.9682 18.2795 25.2384 22.0406 25.2384Z" fill="#F19A00"/>
<path id="Vector_27" fill-rule="evenodd" clip-rule="evenodd" d="M22.3346 19.5669C25.9594 19.631 28.8509 20.8753 28.8509 22.4011C28.8509 23.9269 25.9594 25.1712 22.3346 25.2354C18.7099 25.1713 15.8184 23.9269 15.8184 22.4011C15.8184 20.8753 18.7099 19.631 22.3346 19.5669Z" fill="#F9AC00"/>
<path id="Vector_28" fill-rule="evenodd" clip-rule="evenodd" d="M23.9013 21.2134C23.9464 21.3874 23.8419 21.5651 23.6679 21.6101C23.4939 21.6552 23.3163 21.5507 23.2712 21.3767C23.2546 21.3124 23.2198 21.2534 23.171 21.2001C23.0235 21.0393 22.7612 20.9318 22.4628 20.8793C22.4314 20.8737 22.3997 20.8688 22.3679 20.8646V22.1599C22.4179 22.171 22.4662 22.1823 22.5117 22.1936C22.608 22.2177 22.7092 22.2471 22.8151 22.2822C23.1486 22.3929 23.4399 22.544 23.6377 22.7478C23.8751 22.9923 23.982 23.2947 23.8888 23.6671C23.8836 23.6878 23.8749 23.7166 23.8625 23.7538C23.7355 24.1365 23.3569 24.3924 22.8836 24.5177C22.722 24.5605 22.5474 24.5887 22.3679 24.6018V24.9955C22.3679 25.1758 22.2216 25.3221 22.0413 25.3221C21.861 25.3221 21.7148 25.1758 21.7148 24.9955V24.5835C21.5353 24.5601 21.3593 24.5213 21.1948 24.4667C20.6975 24.3016 20.2974 23.9915 20.1729 23.5214C20.1271 23.3475 20.231 23.1692 20.405 23.1235C20.579 23.0777 20.7572 23.1816 20.803 23.3556C20.8638 23.585 21.099 23.7497 21.3988 23.8493C21.4988 23.8824 21.6051 23.908 21.7148 23.9261V22.6866C21.3688 22.6093 21.0249 22.5122 20.7592 22.3308C20.6639 22.2657 20.5821 22.1949 20.5134 22.12C20.3398 21.9306 20.248 21.7155 20.232 21.4964C20.2158 21.2758 20.2775 21.0577 20.4104 20.8631C20.4616 20.788 20.5233 20.7171 20.5947 20.6516C20.7846 20.4775 21.0434 20.3534 21.3324 20.2787C21.4547 20.2472 21.5832 20.2242 21.7147 20.2097V19.8068C21.7147 19.6264 21.8609 19.4802 22.0413 19.4802C22.2216 19.4802 22.3678 19.6264 22.3678 19.8068V20.2076C22.4377 20.2148 22.507 20.2244 22.575 20.2363C23.0049 20.3121 23.4001 20.4856 23.6505 20.7587C23.7695 20.8886 23.8564 21.04 23.9012 21.2133L23.9013 21.2134ZM21.7148 20.8657C21.6394 20.8763 21.5661 20.8907 21.4958 20.9089C21.3062 20.9578 21.144 21.0323 21.036 21.1313C21.001 21.1634 20.9717 21.1967 20.9486 21.2306C20.9 21.3018 20.8771 21.3776 20.8825 21.4506C20.888 21.5251 20.9239 21.6035 20.993 21.6788C21.0291 21.7182 21.0736 21.7564 21.1265 21.7926C21.2718 21.8918 21.4842 21.9607 21.7147 22.0176V20.8656L21.7148 20.8657ZM22.3679 23.9487C22.4899 23.9372 22.608 23.9168 22.7178 23.8877C22.9888 23.8159 23.1953 23.7001 23.2452 23.5498C23.2471 23.5438 23.2509 23.5301 23.2561 23.509C23.287 23.3855 23.2508 23.2843 23.1708 23.2019C23.0512 23.0786 22.8507 22.9791 22.6111 22.8996C22.5407 22.8763 22.4588 22.853 22.3679 22.8299V23.9487V23.9487Z" fill="#FCDB35"/>
</g>
</g>
</svg>
