<svg width="32" height="32" viewBox="0 0 32 32" fill="none" xmlns="http://www.w3.org/2000/svg">
<g id="cooperation 1" clip-path="url(#clip0_237_53300)">
<g id="Group">
<g id="Group_2">
<path id="Vector" d="M16 31.5312C24.5777 31.5312 31.5312 24.5777 31.5312 16C31.5312 7.42232 24.5777 0.46875 16 0.46875C7.42232 0.46875 0.46875 7.42232 0.46875 16C0.46875 24.5777 7.42232 31.5312 16 31.5312Z" fill="#8993DA"/>
<path id="Vector_2" d="M19.532 31.1283C18.3975 31.392 17.2151 31.5318 16.0005 31.5318C7.4228 31.5318 0.46875 24.5777 0.46875 16C0.46875 7.42235 7.4228 0.468994 16.0005 0.468994C17.2151 0.468994 18.3975 0.608746 19.532 0.871813C12.6553 2.47078 7.53173 8.637 7.53173 16C7.53173 23.3631 12.6553 29.53 19.532 31.1283Z" fill="#707DD3"/>
<path id="Vector_3" d="M27.3141 4.68626C24.2921 1.66428 20.2742 0 16.0004 0C11.7266 0 7.70871 1.66428 4.68666 4.68626C2.89095 6.48198 1.57461 8.62938 0.802039 10.9731C0.274469 12.5737 0.469159 14.2658 0.469159 16C0.469159 16.4974 0.0229648 16.9915 0.0675905 17.4808C0.406283 21.1956 2.01643 24.6434 4.68673 27.3137C7.70877 30.3357 11.7267 32 16.0005 32C20.2742 32 24.2922 30.3357 27.3142 27.3137C29.9869 24.6411 31.5976 21.1893 31.9343 17.4706C31.9783 16.9846 31.8451 16.4941 31.8451 16.0001C31.8451 14.5678 31.8136 13.1643 31.4513 11.8173C30.7324 9.14502 29.3234 6.69554 27.3141 4.68626ZM31.0549 15.5312H25.8674C25.8177 12.6978 25.3179 9.98841 24.4242 7.62574C25.3247 7.06592 26.1751 6.41279 26.9626 5.67084C29.5028 8.36269 30.9426 11.8325 31.0549 15.5312ZM16.4692 0.95864C18.6365 1.14939 20.6735 2.65954 22.2482 5.26052C22.6195 5.87384 22.9548 6.53129 23.2528 7.22524C21.1895 8.36207 18.8778 8.9987 16.4692 9.07189V0.95864ZM15.5316 9.07189C13.123 8.9987 10.8114 8.36201 8.74804 7.22511C9.04611 6.53116 9.3813 5.87384 9.75262 5.26052C11.3273 2.65954 13.3643 1.14939 15.5316 0.95864V9.07189ZM15.5316 10.01V15.5312H7.07114C7.11939 12.868 7.57858 10.3252 8.39835 8.10319C10.5726 9.28046 13.0022 9.93759 15.5316 10.01ZM15.5316 16.4688V21.9904C13.0023 22.0628 10.5727 22.7199 8.39847 23.8971C7.57858 21.675 7.11939 19.1322 7.07114 16.4688H15.5316ZM15.5316 22.9285V31.0414C13.3643 30.8506 11.3273 29.3405 9.75262 26.7395C9.38136 26.1263 9.04617 25.469 8.74816 24.7752C10.8114 23.6384 13.1231 23.0017 15.5316 22.9285ZM16.4692 22.9285C18.8777 23.0017 21.1894 23.6383 23.2527 24.7751C22.9547 25.469 22.6194 26.1262 22.2482 26.7395C20.6735 29.3405 18.6365 30.8506 16.4692 31.0414V22.9285ZM16.4692 21.9904V16.4688H24.9297C24.8814 19.1321 24.4222 21.6749 23.6024 23.897C21.4282 22.7198 18.9986 22.0627 16.4692 21.9904ZM16.4692 15.5312V10.01C18.9986 9.93766 21.4282 9.28052 23.6025 8.10331C24.4222 10.3253 24.8814 12.868 24.9296 15.5312H16.4692ZM26.2982 5.00858C25.6022 5.66159 24.855 6.24178 24.0653 6.74442C23.7622 6.05103 23.4237 5.39208 23.0501 4.77501C22.2324 3.42437 21.2917 2.3401 20.2669 1.54815C22.5014 2.20447 24.5606 3.37805 26.2982 5.00858ZM8.95067 4.77501C8.5771 5.39202 8.23866 6.05091 7.93559 6.74423C7.14589 6.2416 6.39869 5.66146 5.7028 5.00845C7.44033 3.37805 9.49943 2.20447 11.7339 1.54815C10.7091 2.34004 9.76837 3.42437 8.95067 4.77501ZM5.03829 5.67071C5.82593 6.41266 6.67613 7.0658 7.57671 7.62562C6.68301 9.98834 6.18312 12.6978 6.13344 15.5312H0.945854C1.05823 11.8324 2.49807 8.36257 5.03829 5.67071ZM0.945854 16.4688H6.13344C6.18312 19.3024 6.68301 22.0119 7.57683 24.3747C6.67632 24.9345 5.82606 25.5876 5.03848 26.3295C2.49813 23.6376 1.05823 20.1677 0.945854 16.4688ZM5.70299 26.9918C6.39888 26.3388 7.14608 25.7587 7.93571 25.2561C8.23872 25.9493 8.57716 26.6081 8.95067 27.225C9.76837 28.5756 10.7091 29.6599 11.7339 30.4518C9.49955 29.7956 7.44052 28.6221 5.70299 26.9918ZM23.0501 27.225C23.4236 26.6081 23.7621 25.9492 24.0652 25.256C24.8549 25.7585 25.6021 26.3387 26.298 26.9917C24.5605 28.6221 22.5014 29.7956 20.2669 30.4519C21.2917 29.66 22.2325 28.5756 23.0501 27.225ZM26.9624 26.3293C26.1748 25.5874 25.3245 24.9343 24.424 24.3746C25.3177 22.0118 25.8176 19.3024 25.8673 16.4688H31.0549C30.9426 20.1676 29.5027 23.6375 26.9624 26.3293Z" fill="#5766CB"/>
</g>
<g id="Group_3">
<path id="Vector_4" d="M25.8301 9.08398H32.0002V17.7286H25.8301V9.08398Z" fill="#365E7D"/>
<path id="Vector_5" d="M25.8301 9.08398H27.4419V17.7286H25.8301V9.08398Z" fill="#2B4D66"/>
<path id="Vector_6" d="M25.8301 15.321H32.0002V17.7286H25.8301V15.321Z" fill="#2B4D66"/>
<path id="Vector_7" d="M0 9.08398H6.92798V17.7285H0V9.08398Z" fill="#FFD064"/>
<path id="Vector_8" d="M0 15.5522H6.92786V17.7285H0V15.5522Z" fill="#FFC250"/>
<path id="Vector_9" d="M3.43359 9.08398H6.92721V17.7285H3.43359V9.08398Z" fill="#FFC250"/>
<path id="Vector_10" d="M6.12587 20.0912C5.10498 20.0912 4.27734 19.2636 4.27734 18.2426V9.08374H7.97434V18.2426C7.9744 19.2635 7.14683 20.0912 6.12587 20.0912Z" fill="#FFD064"/>
<path id="Vector_11" d="M7.97635 14.0444V18.2427C7.97635 19.2633 7.14865 20.091 6.12758 20.091C5.107 20.091 4.2793 19.2633 4.2793 18.2427V14.0444C4.2793 15.0655 5.107 15.8932 6.12758 15.8932C7.14865 15.8932 7.97635 15.0655 7.97635 14.0444Z" fill="#FFC250"/>
<g id="Group_4">
<path id="Vector_12" d="M23.119 9.0835L24.9674 15.8932L23.3058 18.5583L21.1362 20.7282L17.2772 24.5878C16.7355 25.129 15.8579 25.129 15.3168 24.5878C15.0459 24.317 14.911 23.9625 14.911 23.6076C14.911 23.2574 15.0426 22.9072 15.3068 22.6378L14.3604 23.5843C13.8187 24.1255 12.9411 24.1255 12.4 23.5843C12.1296 23.3135 11.9942 22.959 11.9942 22.6041C11.9942 22.2525 12.1273 21.9013 12.3928 21.6314L11.7186 22.3056C11.177 22.8468 10.2994 22.8468 9.75823 22.3056C9.48785 22.0348 9.35248 21.6799 9.35248 21.3254C9.35248 20.9738 9.48504 20.6227 9.75067 20.3533L9.29404 20.8099C9.02322 21.0803 8.66828 21.2157 8.31383 21.2157C7.95889 21.2157 7.60445 21.0802 7.33363 20.8099C6.79244 20.2683 6.79244 19.3907 7.33363 18.8495L14.8984 11.2846L11.5921 9.97726C12.1642 9.40519 12.9401 9.0835 13.7493 9.0835H23.119Z" fill="#FFECE4"/>
</g>
<path id="Vector_13" d="M13.2961 12.8875L14.124 13.618L8.11325 19.6287C7.84244 19.8995 7.707 20.2539 7.707 20.6089C7.707 20.7823 7.73931 20.9553 7.80437 21.1187C7.63287 21.0517 7.47224 20.9486 7.33349 20.8099C7.06267 20.5391 6.92773 20.1841 6.92773 19.8297C6.92773 19.4747 7.06267 19.1203 7.33349 18.8495L7.95781 18.2252L9.23871 16.1213L13.2961 12.8875Z" fill="#FFDDCE"/>
<g id="Group_5">
<path id="Vector_14" d="M22.8651 18.7697L23.3164 19.221C23.7775 19.682 23.7775 20.4296 23.3164 20.8907C22.8553 21.3517 22.1078 21.3517 21.6467 20.8907L21.1954 20.4394C20.7343 19.9783 20.7343 19.2307 21.1954 18.7697C21.6565 18.3085 22.404 18.3085 22.8651 18.7697Z" fill="#E2A770"/>
<path id="Vector_15" d="M20.6463 19.8905L21.6465 20.8907C22.1076 21.3517 22.1076 22.0993 21.6465 22.5603C21.1855 23.0214 20.4379 23.0214 19.9768 22.5603L18.9767 21.5602C18.5156 21.0991 18.5156 20.3515 18.9767 19.8905C19.4377 19.4294 20.1853 19.4294 20.6463 19.8905Z" fill="#E2A770"/>
<path id="Vector_16" d="M19.5252 22.109L19.9766 22.5603C20.4376 23.0214 20.4376 23.7689 19.9766 24.23C19.5155 24.691 18.7679 24.691 18.3069 24.23L17.8556 23.7787C17.3945 23.3176 17.3945 22.57 17.8556 22.109C18.3167 21.6479 19.0642 21.6479 19.5252 22.109Z" fill="#E2A770"/>
<path id="Vector_17" d="M18.3065 24.2301C18.7676 24.6911 18.7676 25.4387 18.3065 25.8998C17.8454 26.3608 17.0979 26.3608 16.6368 25.8998C16.1758 25.4387 16.1758 24.6911 16.6368 24.2301C17.0979 23.769 17.8454 23.769 18.3065 24.2301Z" fill="#E2A770"/>
</g>
<g id="Group_6">
<path id="Vector_18" d="M23.5524 20.5525C23.4958 20.675 23.417 20.7895 23.3163 20.8903C23.0858 21.1212 22.7836 21.2362 22.4815 21.2362C22.1793 21.2362 21.8771 21.1212 21.6466 20.8903L21.1953 20.4389C20.7344 19.978 20.7344 19.2307 21.1953 18.7693C21.2965 18.6681 21.4115 18.5892 21.534 18.5322C21.3311 18.9684 21.41 19.5034 21.7706 19.864L22.222 20.3149C22.4525 20.5454 22.7546 20.6608 23.0568 20.6608C23.226 20.6609 23.3956 20.6247 23.5524 20.5525Z" fill="#D5985C"/>
<path id="Vector_19" d="M21.8828 22.2222C21.8262 22.3447 21.7473 22.4592 21.6466 22.56C21.4162 22.7909 21.114 22.9059 20.8118 22.9059C20.5096 22.9059 20.2075 22.7909 19.977 22.56L18.9769 21.5598C18.5155 21.0989 18.5155 20.3511 18.9769 19.8902C19.0776 19.7894 19.1921 19.7106 19.3147 19.6541C19.1133 20.0907 19.1921 20.6247 19.5518 20.9849L20.5519 21.9851C20.7823 22.2155 21.0845 22.3309 21.3867 22.3309C21.5563 22.331 21.7255 22.2949 21.8828 22.2222Z" fill="#D5985C"/>
<path id="Vector_20" d="M20.2129 23.8918C20.1564 24.0143 20.0775 24.1288 19.9768 24.2296C19.7464 24.4605 19.4442 24.5755 19.142 24.5755C18.8398 24.5755 18.5376 24.4605 18.3072 24.2296L17.8558 23.7787C17.3944 23.3173 17.3944 22.57 17.8558 22.1086C17.957 22.0075 18.072 21.9286 18.1945 21.8716C17.9917 22.3078 18.0705 22.8428 18.4307 23.2034L18.882 23.6548C19.1125 23.8852 19.4147 24.0006 19.7169 24.0006C19.8865 24.0006 20.0561 23.964 20.2129 23.8918Z" fill="#D5985C"/>
<path id="Vector_21" d="M18.5436 25.5616C18.4866 25.6841 18.4078 25.7991 18.307 25.8999C18.0766 26.1303 17.7744 26.2453 17.4722 26.2453C17.17 26.2453 16.8678 26.1303 16.6369 25.8999C16.4065 25.6694 16.291 25.3672 16.291 25.0651C16.291 24.7629 16.4065 24.4607 16.6369 24.2297C16.7381 24.1286 16.8536 24.0497 16.9761 23.9927C16.9035 24.1499 16.8669 24.3196 16.8669 24.4897C16.8669 24.7914 16.9819 25.0936 17.2123 25.3245C17.4428 25.5549 17.745 25.6704 18.0471 25.6704C18.2168 25.6704 18.3868 25.6337 18.5436 25.5616Z" fill="#D5985C"/>
</g>
<path id="Vector_22" d="M18.6515 15.7027C18.3008 16.0529 17.8413 16.2287 17.3819 16.2287C16.9215 16.2287 16.462 16.0529 16.1119 15.7027L14.2935 13.8843L13.2967 12.8875L7.95898 18.2252L7.96423 15.372L7.97611 9.0835H13.7505C14.276 9.0835 14.7802 9.29256 15.1517 9.66413L18.6516 13.1636C19.3523 13.8648 19.3523 15.0018 18.6515 15.7027Z" fill="#E2A770"/>
<path id="Vector_23" d="M18.1495 15.4606C17.6896 15.4606 17.2301 15.2848 16.8795 14.9342L13.8284 11.8831C13.4888 11.5435 12.9382 11.5435 12.5987 11.8831L12.4457 12.036L9.97264 14.5091C9.43763 15.0441 8.71825 15.352 7.96423 15.372L7.95898 18.2252L13.2967 12.8875L14.2935 13.8843L14.2936 13.8842L16.1117 15.7025C16.4623 16.0527 16.9218 16.2285 17.3817 16.2285C17.8416 16.2285 18.3011 16.0527 18.6513 15.7025C18.7853 15.5685 18.8936 15.4188 18.9767 15.2591C18.7183 15.3932 18.4341 15.4606 18.1495 15.4606Z" fill="#D5985C"/>
<g id="Group_7">
<path id="Vector_24" d="M12.2857 17.8191L12.4103 17.9503C12.7631 18.3224 12.7554 18.9079 12.3928 19.2706L10.539 21.1245C10.2682 21.3953 10.1328 21.7498 10.1328 22.1047C10.1328 22.2782 10.1651 22.4511 10.2302 22.6145C10.0587 22.5475 9.89802 22.4444 9.75927 22.3057C9.48845 22.0349 9.35352 21.68 9.35352 21.3255C9.35352 20.9706 9.48845 20.6161 9.75927 20.3453L12.2857 17.8191Z" fill="#FFDDCE"/>
<path id="Vector_25" d="M14.9283 19.0977L15.0528 19.2289C15.4057 19.601 15.398 20.1865 15.0354 20.5491L13.1816 22.4031C12.9108 22.6739 12.7754 23.0283 12.7754 23.3833C12.7754 23.5567 12.8077 23.7297 12.8727 23.8931C12.7012 23.8261 12.5406 23.723 12.4019 23.5843C12.131 23.3135 11.9961 22.9585 11.9961 22.6041C11.9961 22.2491 12.131 21.8947 12.4019 21.6239L14.9283 19.0977Z" fill="#FFDDCE"/>
<path id="Vector_26" d="M17.8443 20.1011L17.9688 20.2323C18.3218 20.6044 18.314 21.1899 17.9514 21.5525L16.0976 23.4065C15.8268 23.6773 15.6914 24.0318 15.6914 24.3867C15.6914 24.5601 15.7237 24.7331 15.7887 24.8965C15.6172 24.8295 15.4566 24.7264 15.3179 24.5877C15.047 24.3169 14.9121 23.9619 14.9121 23.6075C14.9121 23.2526 15.047 22.8981 15.3179 22.6273L17.8443 20.1011Z" fill="#FFDDCE"/>
</g>
<path id="Vector_27" d="M6.12714 12.2535C6.59323 12.2535 6.97108 11.8757 6.97108 11.4096C6.97108 10.9435 6.59323 10.5657 6.12714 10.5657C5.66105 10.5657 5.2832 10.9435 5.2832 11.4096C5.2832 11.8757 5.66105 12.2535 6.12714 12.2535Z" fill="#F9F6F9"/>
<path id="Vector_28" d="M24.9677 20.0912C23.9468 20.0912 23.1191 19.2636 23.1191 18.2426V12.8875V9.08374H26.8161V18.2426C26.8162 19.2635 25.9886 20.0912 24.9677 20.0912Z" fill="#365E7D"/>
<path id="Vector_29" d="M26.8162 14.0444V18.2427C26.8162 19.2633 25.9885 20.091 24.9674 20.091C23.9468 20.091 23.1191 19.2633 23.1191 18.2427V14.0444C23.1191 15.0655 23.9468 15.8932 24.9674 15.8932C25.9885 15.8932 26.8162 15.0655 26.8162 14.0444Z" fill="#2B4D66"/>
<path id="Vector_30" d="M24.9865 12.2535C25.4526 12.2535 25.8305 11.8757 25.8305 11.4096C25.8305 10.9435 25.4526 10.5657 24.9865 10.5657C24.5204 10.5657 24.1426 10.9435 24.1426 11.4096C24.1426 11.8757 24.5204 12.2535 24.9865 12.2535Z" fill="#F9F6F9"/>
</g>
</g>
</g>
<defs>
<clipPath id="clip0_237_53300">
<rect width="32" height="32" fill="white"/>
</clipPath>
</defs>
</svg>
