<svg width="32" height="32" viewBox="0 0 32 32" fill="none" xmlns="http://www.w3.org/2000/svg">
<g id="customer-service (1) 1">
<path id="Vector" d="M22.8635 17.5846L16.6021 19.2127C16.2152 19.3133 15.8091 19.3153 15.4212 19.2187L8.81582 17.5715C7.76833 17.3103 7.0332 16.3694 7.0332 15.2898V8.07323C7.03314 3.61449 10.6477 0 15.1064 0H16.5501C21.0089 0 24.6234 3.61449 24.6234 8.07323V15.3087C24.6234 16.3795 23.8999 17.3151 22.8635 17.5846Z" fill="#FD9727"/>
<path id="Vector_2" d="M16.5484 0H15.1047C14.7421 0 14.3852 0.0243125 14.0352 0.0706249C17.9883 0.593936 21.0389 3.97712 21.0389 8.07323V15.3087C21.0389 16.3795 20.3155 17.3152 19.2791 17.5847L14.1818 18.91L15.4195 19.2187C15.8075 19.3154 16.2135 19.3133 16.6005 19.2127L22.8619 17.5846C23.8983 17.3151 24.6217 16.3795 24.6217 15.3087V8.07323C24.6216 3.61449 21.0071 0 16.5484 0Z" fill="#FF6D3A"/>
<g id="Group">
<path id="Vector_3" d="M7.40545 13.1132H9.11857V8.93066H7.40545C6.90214 8.93066 6.49414 9.33866 6.49414 9.84198V12.2018C6.49414 12.7052 6.90214 13.1132 7.40545 13.1132Z" fill="#3D6687"/>
<path id="Vector_4" d="M24.594 13.1132H22.8809V8.93066H24.594C25.0973 8.93066 25.5053 9.33866 25.5053 9.84198V12.2018C25.5053 12.7052 25.0973 13.1132 24.594 13.1132Z" fill="#3D6687"/>
</g>
<path id="Vector_5" d="M19.8674 20.4112C19.2683 20.2907 18.8372 19.7644 18.8372 19.1533V16.2612H15.9991H13.1611V19.1533C13.1611 19.7644 12.7301 20.2907 12.131 20.4112L11.4395 20.5502V25.1945H15.9991H20.5589V20.5502L19.8674 20.4112Z" fill="#FED9A8"/>
<path id="Vector_6" d="M25.7777 21.9704L20.0853 20.1956C19.9086 20.1404 19.716 20.1852 19.5816 20.3125L16.0005 23.7062L12.4195 20.3126C12.2851 20.1852 12.0924 20.1405 11.9157 20.1956L6.22335 21.9705C3.69961 22.7136 1.9668 25.0302 1.9668 27.661V31.4533C1.9668 31.7552 2.21155 31.9999 2.51342 31.9999H29.4877C29.7896 31.9999 30.0343 31.7552 30.0343 31.4533V27.661C30.0342 25.0301 28.3014 22.7135 25.7777 21.9704Z" fill="#FF4C4C"/>
<path id="Vector_7" d="M25.7776 21.9704L20.0852 20.1956C19.9085 20.1404 19.7159 20.1852 19.5815 20.3125L18.9121 20.9469L22.1949 21.9704C24.7186 22.7135 26.4514 25.0301 26.4514 27.661V31.9998H29.4876C29.7895 31.9998 30.0342 31.7551 30.0342 31.4532V27.661C30.0341 25.0301 28.3013 22.7135 25.7776 21.9704Z" fill="#EF2929"/>
<path id="Vector_8" d="M16 18.6659C12.093 18.6659 8.92578 15.4987 8.92578 11.5918V9.60372C8.92578 5.69679 12.093 2.52954 16 2.52954C19.9069 2.52954 23.0741 5.69679 23.0741 9.60372V11.5918C23.0741 15.4988 19.9069 18.6659 16 18.6659Z" fill="#FED9A8"/>
<path id="Vector_9" d="M19.4918 3.44995V11.5916C19.4918 14.8796 17.2485 17.6435 14.209 18.4367C14.7812 18.586 15.3814 18.6658 16.0004 18.6658C19.9073 18.6658 23.0745 15.4986 23.0745 11.5916V9.60356C23.0746 6.96638 21.6313 4.66651 19.4918 3.44995Z" fill="#F4C892"/>
<g id="Group_2">
<path id="Vector_10" d="M12.4188 20.3127L15.9998 23.7064L13.7913 24.4587C13.2502 24.643 12.6513 24.4828 12.2746 24.0529L9.54297 20.9354L11.915 20.1958C12.0918 20.1407 12.2845 20.1854 12.4188 20.3127Z" fill="#D4145A"/>
<path id="Vector_11" d="M19.5811 20.3127L16 23.7064L18.0016 24.3882C18.6679 24.6152 19.4054 24.4179 19.8692 23.8885L22.4569 20.9354L20.0848 20.1958C19.9081 20.1407 19.7154 20.1854 19.5811 20.3127Z" fill="#D4145A"/>
</g>
<path id="Vector_12" d="M11.7748 29.193H8.13364C7.93145 29.193 7.76758 29.0291 7.76758 28.827V27.2142C7.76758 27.012 7.93145 26.8481 8.13364 26.8481H11.7748C11.9769 26.8481 12.1408 27.012 12.1408 27.2142V28.827C12.1409 29.0291 11.9769 29.193 11.7748 29.193Z" fill="#EDA558"/>
<path id="Vector_13" d="M24.6234 9.56442C24.6234 9.56442 21.5713 9.32217 20.5269 6.51474C20.5269 6.51474 13.1489 12.4217 7.0332 9.56442V8.07323C7.0332 3.61449 10.6478 0 15.1065 0H16.5502C21.0089 0 24.6234 3.61449 24.6234 8.07323V9.56442Z" fill="#FD9727"/>
<path id="Vector_14" d="M16.5484 0H15.1047C14.7421 0 14.3852 0.0243125 14.0352 0.0706249C17.794 0.568186 20.7365 3.65149 21.0168 7.47467C22.3038 9.38011 24.6216 9.56442 24.6216 9.56442V8.07323C24.6216 3.61449 21.0071 0 16.5484 0Z" fill="#FF6D3A"/>
<g id="Group_3">
<path id="Vector_15" d="M26.3916 26.6147C26.1246 26.6147 25.9082 26.8311 25.9082 27.0981V32H26.8749V27.0981C26.875 26.8311 26.6585 26.6147 26.3916 26.6147Z" fill="#D4145A"/>
<path id="Vector_16" d="M5.60642 26.6147C5.33948 26.6147 5.12305 26.8311 5.12305 27.0981V32H6.08973V27.0981C6.08973 26.8311 5.87336 26.6147 5.60642 26.6147Z" fill="#D4145A"/>
</g>
<path id="Vector_17" d="M23.271 13.1133V13.995C23.271 14.755 22.7273 15.3999 21.9782 15.5283L17.1143 16.3624C16.8514 16.4074 16.6748 16.6571 16.7199 16.92C16.7602 17.1552 16.9644 17.3213 17.1953 17.3213C17.2224 17.3213 17.2498 17.3191 17.2775 17.3143L22.1414 16.4803C23.3555 16.272 24.2368 15.2268 24.2368 13.995V13.1133H23.271Z" fill="#3D6687"/>
<path id="Vector_18" d="M17.2617 17.7862C16.8149 17.7862 16.4198 17.4648 16.3417 17.0096C16.2545 16.501 16.5962 16.0179 17.1048 15.9306L18.6805 15.6604C19.1893 15.573 19.6723 15.9147 19.7595 16.4234C19.8468 16.932 19.5051 17.4152 18.9965 17.5024L17.4207 17.7727C17.3673 17.7818 17.3141 17.7862 17.2617 17.7862Z" fill="#D4145A"/>
</g>
</svg>
