<svg width="32" height="32" viewBox="0 0 32 32" fill="none" xmlns="http://www.w3.org/2000/svg">
<g id="customer-service 1">
<path id="Vector" d="M20.9651 22.6211V18.7593H11.0347V22.6211L15.9999 27.0346L20.9651 22.6211Z" fill="#E6AF78"/>
<path id="Vector_2" d="M28.6425 24.4275L21.8158 22.8212C21.7126 22.7969 21.6178 22.7557 21.5291 22.7058L15.9998 25.9312L10.6861 22.5498C10.5486 22.6793 10.3778 22.7756 10.1839 22.8212L3.35713 24.4275C2.36026 24.6621 1.65576 25.5516 1.65576 26.5757V30.8965C1.65576 31.5059 2.14976 31.9999 2.75913 31.9999H29.2404C29.8498 31.9999 30.3437 31.5059 30.3437 30.8965V26.5757C30.3438 25.5515 29.6393 24.662 28.6425 24.4275Z" fill="#B4E1FA"/>
<path id="Vector_3" d="M11.0347 18.7593V22.8339C17.2895 25.0874 20.9651 19.4473 20.9651 19.4473V18.7593H11.0347V18.7593Z" fill="#D29B6E"/>
<path id="Vector_4" d="M8.82812 6.07031L9.30887 16.647C9.35375 17.6351 9.83824 18.5514 10.6295 19.1448L12.9106 20.8557C13.4836 21.2853 14.1805 21.5177 14.8967 21.5177H17.1035C17.8198 21.5177 18.5166 21.2854 19.0896 20.8557L21.3707 19.1448C22.162 18.5513 22.6465 17.6351 22.6914 16.647L23.1721 6.07031H8.82812Z" fill="#F0C087"/>
<path id="Vector_5" d="M14.3451 8.27711C16.5519 8.27711 19.862 7.72543 20.6471 6.07031H8.82812L9.30887 16.647C9.35375 17.6351 9.83825 18.5513 10.6296 19.1448L12.9107 20.8557C13.4837 21.2853 14.1805 21.5177 14.8968 21.5177H16.0001C14.8968 21.5177 12.69 19.3109 12.69 16.5525C12.69 15.2034 12.69 11.5873 12.69 9.93216C12.69 9.38048 13.2417 8.27711 14.3451 8.27711Z" fill="#E6AF78"/>
<g id="Group">
<path id="Vector_6" d="M5.70635 28.4194L2.13143 25.208C1.83187 25.5873 1.65625 26.0646 1.65625 26.5756V30.8965C1.65625 31.5059 2.15025 31.9998 2.75962 31.9998H6.62147V30.4715C6.62141 29.6885 6.28872 28.9425 5.70635 28.4194Z" fill="#A0D2F0"/>
<path id="Vector_7" d="M26.294 28.4194L29.8689 25.208C30.1685 25.5873 30.3441 26.0646 30.3441 26.5756V30.8965C30.3441 31.5059 29.8501 31.9998 29.2408 31.9998H25.3789V30.4715C25.3789 29.6885 25.7116 28.9425 26.294 28.4194Z" fill="#A0D2F0"/>
</g>
<path id="Vector_8" d="M17.3791 31.9999H14.6206L14.9654 27.0347H17.0343L17.3791 31.9999Z" fill="#5B5D6E"/>
<path id="Vector_9" d="M17.3791 25.9312H14.6206V26.9695C14.6206 27.3101 14.8967 27.5863 15.2374 27.5863H16.7622C17.1029 27.5863 17.379 27.3101 17.379 26.9695V25.9312H17.3791Z" fill="#515262"/>
<g id="Group_2">
<path id="Vector_10" d="M10.9574 21.3926L16.0002 25.931C16.0002 25.931 14.5879 26.644 12.8452 28.0809C12.4857 28.3773 11.9419 28.2572 11.7491 27.833L9.37988 22.6209L10.1294 21.4968C10.3159 21.2168 10.7074 21.1676 10.9574 21.3926Z" fill="#A0D2F0"/>
<path id="Vector_11" d="M21.0427 21.3926L16 25.931C16 25.931 17.4122 26.644 19.155 28.0809C19.5145 28.3773 20.0583 28.2572 20.2511 27.833L22.6203 22.6209L21.8708 21.4968C21.6842 21.2168 21.2927 21.1676 21.0427 21.3926Z" fill="#A0D2F0"/>
</g>
<path id="Vector_12" d="M19.3447 2.41549L19.8619 6.07047C22.2228 6.54265 22.5631 10.2478 22.6121 11.306C22.621 11.4981 22.6823 11.6835 22.7865 11.8451L23.6873 13.2424C23.6873 13.2424 23.379 10.9322 24.7906 9.38058C24.7906 9.38058 25.2754 0.208693 19.3447 2.41549Z" fill="#785550"/>
<path id="Vector_13" d="M9.35698 1.42687L10.173 1.98431C6.48356 4.70829 7.17312 9.38045 7.17312 9.38045C8.27649 10.4838 8.27649 13.2423 8.27649 13.2423L9.37986 12.1389C9.37986 12.1389 8.95405 8.95158 11.0349 7.7254C12.9658 6.58753 14.6554 7.17371 16.3794 7.17371C20.9999 7.17371 22.2929 5.43241 22.0688 3.31186C21.9528 2.21462 20.2752 -0.0709936 16.0002 0.00169347C14.275 0.0310058 11.035 0.553378 9.35698 1.42687Z" fill="#694B4B"/>
<path id="Vector_14" d="M9.03511 6.69097C9.03511 6.69097 8.44893 4.38074 10.173 1.98438C6.48356 4.70836 7.17312 9.38052 7.17312 9.38052C8.27649 10.4839 8.27649 13.2424 8.27649 13.2424L9.37986 12.139C9.37986 12.139 8.95405 8.95165 11.0349 7.72547C12.9658 6.5876 14.6554 7.17378 16.3794 7.17378C17.1309 7.17378 17.7857 7.12347 18.3689 7.03722C14.8107 7.15647 12.7132 4.46117 9.03511 6.69097Z" fill="#5A4146"/>
<path id="Vector_15" d="M23.1718 30.8965H19.31C19.0053 30.8965 18.7583 31.1435 18.7583 31.4482V31.9999H23.7235V31.4482C23.7235 31.1435 23.4765 30.8965 23.1718 30.8965Z" fill="#A0D2F0"/>
</g>
</svg>
