<svg width="32" height="32" viewBox="0 0 32 32" fill="none" xmlns="http://www.w3.org/2000/svg">
<g id="profits 1" clip-path="url(#clip0_321_26908)">
<path id="Vector" d="M6.30687 30.1323V18.7168H1.20605C0.868408 18.7168 0.594727 18.9937 0.594727 19.3352V31.3559C2.27343 31.1047 4.21044 30.7202 6.30687 30.1323Z" fill="#ACD6FC"/>
<path id="Vector_2" d="M2.52636 19.3352C2.52636 18.9937 2.80004 18.7168 3.13769 18.7168H1.20605C0.868408 18.7168 0.594727 18.9937 0.594727 19.3352V31.3559C1.20581 31.2646 1.85156 31.1552 2.52636 31.0249V19.3352Z" fill="#8AC2FF"/>
<path id="Vector_3" d="M11.9553 28.1152V12.5825H6.85474C6.51709 12.5825 6.24316 12.8594 6.24316 13.2007V30.1328C8.05053 29.6259 9.97607 28.9677 11.9553 28.1152Z" fill="#8AC2FF"/>
<path id="Vector_4" d="M8.17505 13.2007C8.17505 12.8594 8.44873 12.5825 8.78637 12.5825H6.85474C6.51709 12.5825 6.24316 12.8594 6.24316 13.2007V30.1328C6.87353 29.956 7.51855 29.7602 8.17505 29.5449V13.2007Z" fill="#54A0FF"/>
<path id="Vector_5" d="M17.6028 25.1308V6.44775H12.502C12.1643 6.44775 11.8906 6.72436 11.8906 7.06592V28.1152C13.7646 27.3078 15.6868 26.3256 17.6028 25.1308Z" fill="#54A0FF"/>
<path id="Vector_6" d="M13.8223 7.06592C13.8223 6.72436 14.0959 6.44775 14.4336 6.44775H12.502C12.1643 6.44775 11.8906 6.72436 11.8906 7.06592V28.1152C12.5295 27.8398 13.1743 27.5437 13.8223 27.2263V7.06592Z" fill="#338DEF"/>
<path id="Vector_7" d="M23.2502 20.8376V0.930663C23.2502 0.589355 22.9766 0.3125 22.6389 0.3125H18.1494C17.8118 0.3125 17.5381 0.589355 17.5381 0.930663V25.1306C19.467 23.9277 21.3896 22.5097 23.2502 20.8376Z" fill="#338DEF"/>
<path id="Vector_8" d="M19.4697 0.930663C19.4697 0.589355 19.7434 0.3125 20.0813 0.3125H18.1494C17.8118 0.3125 17.5381 0.589355 17.5381 0.930663V25.1306C18.1833 24.7282 18.8281 24.301 19.4697 23.8491V0.930663Z" fill="#2388E2"/>
<path id="Vector_9" d="M31.7841 14.3711H25.4091C25.2187 14.3711 25.1215 14.6001 25.2539 14.7371L26.9855 16.5286C27.0632 16.6091 27.0668 16.7361 26.9936 16.8206C18.28 26.8759 7.07396 30.0485 0.259277 31.0359C0.110351 31.0573 0 31.1853 0 31.3359C0 31.5075 0.142334 31.6457 0.313964 31.6396C17.6042 31.0232 28.3261 21.1538 29.6779 19.8415C29.7602 19.7617 29.8903 19.7605 29.9748 19.8386L31.6371 21.3811C31.7753 21.5095 31.9999 21.4114 31.9999 21.2229V14.5869C31.9999 14.4678 31.9033 14.3711 31.7841 14.3711Z" fill="#FECA57"/>
<path id="Vector_10" d="M2.81005 31.3359C2.81005 31.1853 2.9204 31.0576 3.06933 31.0359C9.88401 30.0485 21.09 26.8759 29.8037 16.8206C29.8769 16.7361 29.8732 16.6091 29.7956 16.5288L28.0642 14.7371C27.9316 14.6001 28.0288 14.3711 28.2194 14.3711H25.4091C25.2187 14.3711 25.1215 14.6001 25.2539 14.7371L26.9855 16.5288C27.0632 16.6091 27.0668 16.7361 26.9936 16.8206C18.28 26.8759 7.07396 30.0485 0.259277 31.0359C0.110351 31.0573 0 31.1853 0 31.3359C0 31.5075 0.142334 31.6457 0.313964 31.6396C1.17529 31.6088 2.01953 31.5544 2.84789 31.4799C2.8247 31.437 2.81005 31.3884 2.81005 31.3359Z" fill="#F4B537"/>
</g>
<defs>
<clipPath id="clip0_321_26908">
<rect width="32" height="32" fill="white"/>
</clipPath>
</defs>
</svg>
