<svg width="32" height="32" viewBox="0 0 32 32" fill="none" xmlns="http://www.w3.org/2000/svg">
<g id="customer-service (1) 1">
<path id="Vector" d="M22.8626 17.5846L16.6011 19.2127C16.2142 19.3133 15.8081 19.3153 15.4202 19.2187L8.81485 17.5715C7.76735 17.3103 7.03223 16.3694 7.03223 15.2898V8.07323C7.03216 3.61449 10.6467 0 15.1055 0H16.5491C21.0079 0 24.6224 3.61449 24.6224 8.07323V15.3087C24.6224 16.3795 23.8989 17.3151 22.8626 17.5846Z" fill="#FD9727"/>
<path id="Vector_2" d="M16.5494 0H15.1057C14.7431 0 14.3861 0.0243125 14.0361 0.0706249C17.9893 0.593936 21.0399 3.97712 21.0399 8.07323V15.3087C21.0399 16.3795 20.3164 17.3152 19.2801 17.5847L14.1828 18.91L15.4205 19.2187C15.8084 19.3154 16.2144 19.3133 16.6014 19.2127L22.8629 17.5846C23.8992 17.3151 24.6227 16.3795 24.6227 15.3087V8.07323C24.6226 3.61449 21.0081 0 16.5494 0Z" fill="#FF6D3A"/>
<g id="Group">
<path id="Vector_3" d="M7.40643 13.1132H9.11955V8.93066H7.40643C6.90312 8.93066 6.49512 9.33866 6.49512 9.84198V12.2018C6.49512 12.7052 6.90312 13.1132 7.40643 13.1132Z" fill="#3D6687"/>
<path id="Vector_4" d="M24.594 13.1132H22.8809V8.93066H24.594C25.0973 8.93066 25.5053 9.33866 25.5053 9.84198V12.2018C25.5053 12.7052 25.0973 13.1132 24.594 13.1132Z" fill="#3D6687"/>
</g>
<path id="Vector_5" d="M19.8684 20.4112C19.2692 20.2907 18.8382 19.7644 18.8382 19.1533V16.2612H16.0001H13.1621V19.1533C13.1621 19.7644 12.7311 20.2907 12.1319 20.4112L11.4404 20.5502V25.1945H16.0001H20.5598V20.5502L19.8684 20.4112Z" fill="#FED9A8"/>
<path id="Vector_6" d="M25.7767 21.9704L20.0843 20.1956C19.9077 20.1404 19.715 20.1852 19.5806 20.3125L15.9995 23.7062L12.4185 20.3126C12.2841 20.1852 12.0914 20.1405 11.9147 20.1956L6.22237 21.9705C3.69863 22.7136 1.96582 25.0302 1.96582 27.661V31.4533C1.96582 31.7552 2.21057 31.9999 2.51244 31.9999H29.4867C29.7886 31.9999 30.0333 31.7552 30.0333 31.4533V27.661C30.0333 25.0301 28.3005 22.7135 25.7767 21.9704Z" fill="#FF4C4C"/>
<path id="Vector_7" d="M25.7776 21.9704L20.0852 20.1956C19.9085 20.1404 19.7159 20.1852 19.5815 20.3125L18.9121 20.9469L22.1949 21.9704C24.7186 22.7135 26.4514 25.0301 26.4514 27.661V31.9998H29.4876C29.7895 31.9998 30.0342 31.7551 30.0342 31.4532V27.661C30.0341 25.0301 28.3013 22.7135 25.7776 21.9704Z" fill="#EF2929"/>
<path id="Vector_8" d="M16 18.6659C12.093 18.6659 8.92578 15.4987 8.92578 11.5918V9.60372C8.92578 5.69679 12.093 2.52954 16 2.52954C19.9069 2.52954 23.0741 5.69679 23.0741 9.60372V11.5918C23.0741 15.4988 19.9069 18.6659 16 18.6659Z" fill="#FED9A8"/>
<path id="Vector_9" d="M19.4918 3.44995V11.5916C19.4918 14.8796 17.2485 17.6435 14.209 18.4367C14.7812 18.586 15.3814 18.6658 16.0004 18.6658C19.9073 18.6658 23.0745 15.4986 23.0745 11.5916V9.60356C23.0746 6.96638 21.6313 4.66651 19.4918 3.44995Z" fill="#F4C892"/>
<g id="Group_2">
<path id="Vector_10" d="M12.4188 20.3127L15.9998 23.7064L13.7913 24.4587C13.2502 24.643 12.6513 24.4828 12.2746 24.0529L9.54297 20.9354L11.915 20.1958C12.0918 20.1407 12.2845 20.1854 12.4188 20.3127Z" fill="#D4145A"/>
<path id="Vector_11" d="M19.5811 20.3127L16 23.7064L18.0016 24.3882C18.6679 24.6152 19.4054 24.4179 19.8692 23.8885L22.4569 20.9354L20.0848 20.1958C19.9081 20.1407 19.7154 20.1854 19.5811 20.3127Z" fill="#D4145A"/>
</g>
<path id="Vector_12" d="M11.7748 29.193H8.13364C7.93145 29.193 7.76758 29.0291 7.76758 28.827V27.2142C7.76758 27.012 7.93145 26.8481 8.13364 26.8481H11.7748C11.9769 26.8481 12.1408 27.012 12.1408 27.2142V28.827C12.1409 29.0291 11.9769 29.193 11.7748 29.193Z" fill="#EDA558"/>
<path id="Vector_13" d="M24.6224 9.56442C24.6224 9.56442 21.5703 9.32217 20.5259 6.51474C20.5259 6.51474 13.1479 12.4217 7.03223 9.56442V8.07323C7.03223 3.61449 10.6468 0 15.1055 0H16.5492C21.0079 0 24.6224 3.61449 24.6224 8.07323V9.56442Z" fill="#FD9727"/>
<path id="Vector_14" d="M16.5494 0H15.1057C14.7431 0 14.3861 0.0243125 14.0361 0.0706249C17.7949 0.568186 20.7375 3.65149 21.0177 7.47467C22.3048 9.38011 24.6226 9.56442 24.6226 9.56442V8.07323C24.6226 3.61449 21.0081 0 16.5494 0Z" fill="#FF6D3A"/>
<g id="Group_3">
<path id="Vector_15" d="M26.3935 26.6147C26.1266 26.6147 25.9102 26.8311 25.9102 27.0981V32H26.8768V27.0981C26.8769 26.8311 26.6605 26.6147 26.3935 26.6147Z" fill="#D4145A"/>
<path id="Vector_16" d="M5.6074 26.6147C5.34046 26.6147 5.12402 26.8311 5.12402 27.0981V32H6.09071V27.0981C6.09071 26.8311 5.87433 26.6147 5.6074 26.6147Z" fill="#D4145A"/>
</g>
<path id="Vector_17" d="M23.271 13.1133V13.995C23.271 14.755 22.7273 15.3999 21.9782 15.5283L17.1143 16.3624C16.8514 16.4074 16.6748 16.6571 16.7199 16.92C16.7602 17.1552 16.9644 17.3213 17.1953 17.3213C17.2224 17.3213 17.2498 17.3191 17.2775 17.3143L22.1414 16.4803C23.3555 16.272 24.2368 15.2268 24.2368 13.995V13.1133H23.271Z" fill="#3D6687"/>
<path id="Vector_18" d="M17.2607 17.7862C16.8139 17.7862 16.4188 17.4648 16.3407 17.0096C16.2535 16.501 16.5952 16.0179 17.1038 15.9306L18.6796 15.6604C19.1883 15.573 19.6713 15.9147 19.7586 16.4234C19.8458 16.932 19.5041 17.4152 18.9955 17.5024L17.4197 17.7727C17.3663 17.7818 17.3131 17.7862 17.2607 17.7862Z" fill="#D4145A"/>
</g>
</svg>
