<svg width="32" height="32" viewBox="0 0 32 32" fill="none" xmlns="http://www.w3.org/2000/svg">
<g id="artificial-intelligence 1" clip-path="url(#clip0_321_27162)">
<g id="Group">
<path id="Vector" d="M24.5612 6.01562L22.7804 7.78762C22.7438 7.82281 22.6276 7.87081 22.5769 7.87169H18.625V8.80919H22.5769C22.8749 8.80919 23.2304 8.66244 23.4416 8.45231L25.3008 6.60219C24.9969 6.48831 24.7386 6.28106 24.5612 6.01562Z" fill="#004777"/>
<path id="Vector_2" d="M23.2696 27.8296L22.0575 26.6235C21.8463 26.4134 21.4908 26.2666 21.1929 26.2666H18.625V27.2041H21.1927C21.2436 27.205 21.3597 27.2529 21.3962 27.288L22.5591 28.4452C22.7249 28.173 22.9734 27.9562 23.2696 27.8296Z" fill="#004777"/>
<path id="Vector_3" d="M22.7746 23.292C22.7746 23.1286 22.8008 22.9711 22.8487 22.8232H18.625V23.7607H22.8486C22.8007 23.6129 22.7746 23.4554 22.7746 23.292Z" fill="#004777"/>
<path id="Vector_4" d="M23.5759 19.2144C23.5759 19.0509 23.6021 18.8934 23.65 18.7456H18.625V19.6831H23.6499C23.6021 19.5352 23.5759 19.3778 23.5759 19.2144Z" fill="#004777"/>
<path id="Vector_5" d="M20 14.8652C20 14.7017 20.0261 14.5443 20.0741 14.3965H18.625V15.334H20.0741C20.0261 15.1861 20 15.0287 20 14.8652Z" fill="#004777"/>
<path id="Vector_6" d="M28.4159 14.8283L24.68 11.1108C24.4688 10.9007 24.1133 10.7539 23.8154 10.7539H18.625V11.6914H23.8152C23.866 11.6923 23.9822 11.7402 24.0187 11.7753L27.7522 15.4904C27.8988 15.2068 28.1314 14.9747 28.4159 14.8283Z" fill="#004777"/>
<path id="Vector_7" d="M19.7879 4.2998C19.7879 4.1363 19.8141 3.97887 19.8619 3.83105H18.625V4.76855H19.8619C19.814 4.62074 19.7879 4.4633 19.7879 4.2998Z" fill="#004777"/>
</g>
<path id="Vector_8" d="M21.3234 5.89221C20.4423 5.89221 19.7256 5.17789 19.7256 4.29983C19.7256 3.42183 20.4424 2.70752 21.3234 2.70752C22.2045 2.70752 22.9213 3.42183 22.9213 4.29983C22.9213 5.17796 22.2045 5.89221 21.3234 5.89221Z" fill="#FFC502"/>
<path id="Vector_9" d="M11.8104 2.67038C11.6211 2.63894 11.4271 2.62181 11.229 2.62181C9.28859 2.62181 7.71559 4.18706 7.71559 6.11788C7.71559 6.28788 7.7284 6.45481 7.75196 6.61831C7.41465 6.51119 7.05534 6.45275 6.68227 6.45275C4.7419 6.45275 3.16896 8.018 3.16896 9.94881C3.16896 10.5225 3.30871 11.0634 3.55484 11.541C1.91171 12.3438 0.780273 14.0245 0.780273 15.9688C0.780273 17.9206 1.92034 19.6074 3.57384 20.4062C3.31565 20.8929 3.1689 21.447 3.1689 22.0355C3.1689 23.9663 4.74184 25.5315 6.68221 25.5315C7.05377 25.5315 7.41159 25.4736 7.74765 25.3673C7.72721 25.5204 7.71552 25.6762 7.71552 25.8347C7.71552 27.7656 9.28852 29.3309 11.2289 29.3309C11.4287 29.3309 11.6245 29.3134 11.8151 29.2814C12.2624 30.5723 13.493 31.5 14.9421 31.5C16.769 31.5 18.2498 30.0264 18.2498 28.2086V3.72887C18.2498 1.91106 16.769 0.4375 14.9421 0.4375C13.4877 0.4375 12.2535 1.37206 11.8104 2.67038Z" fill="#EF5050"/>
<g id="Group_2" opacity="0.1">
<path id="Vector_10" d="M1.71791 17.0938C1.71791 15.3191 2.71391 13.73 4.31709 12.9467C4.39266 12.9099 4.45009 12.8441 4.47659 12.7644C4.50303 12.6846 4.49622 12.5976 4.45772 12.5229C4.22472 12.0707 4.10659 11.5831 4.10659 11.0738C4.10659 9.31837 5.54247 7.89025 7.30741 7.89025C7.63903 7.89025 7.96716 7.94106 8.28253 8.04119C8.31353 8.051 8.34547 8.05581 8.37716 8.05581C8.45016 8.05581 8.52197 8.03025 8.57922 7.98169C8.66128 7.91219 8.70178 7.80525 8.68647 7.69881C8.66447 7.546 8.65328 7.39262 8.65328 7.24294C8.65328 5.4875 10.0892 4.05931 11.8542 4.05931C12.0287 4.05931 12.2072 4.07425 12.3843 4.10369C12.4016 4.10656 12.4188 4.10794 12.4357 4.10794C12.5674 4.10794 12.6875 4.02444 12.7313 3.89631C13.1438 2.68731 14.2835 1.875 15.5673 1.875C16.7232 1.875 17.7277 2.53 18.2268 3.48612C18.0867 1.79669 16.6653 0.46875 14.9313 0.46875C13.4769 0.46875 12.2426 1.40331 11.7996 2.70163C11.6103 2.67019 11.4163 2.65306 11.2182 2.65306C9.27778 2.65306 7.70478 4.21831 7.70478 6.14913C7.70478 6.31913 7.71759 6.48606 7.74116 6.64956C7.40384 6.54244 7.04453 6.484 6.67147 6.484C4.73109 6.484 3.15816 8.04925 3.15816 9.98006C3.15816 10.5538 3.29791 11.0946 3.54403 11.5723C1.90091 12.3749 0.769531 14.0557 0.769531 16C0.769531 17.5566 1.49509 18.9439 2.62747 19.8475C2.04572 19.0691 1.71791 18.1128 1.71791 17.0938Z" fill="#00003F"/>
</g>
<g id="Group_3">
<path id="Vector_11" d="M7.47148 17.6375C7.73041 17.6375 7.94023 17.4277 7.94023 17.1688C7.94023 16.9099 7.73041 16.7 7.47148 16.7H6.12698C5.26916 16.7 4.57129 16.0066 4.57129 15.1543C4.57129 14.8954 4.36148 14.6855 4.10254 14.6855C3.8436 14.6855 3.63379 14.8954 3.63379 15.1543C3.63379 16.5235 4.75223 17.6375 6.12698 17.6375H7.47148Z" fill="#FB8276"/>
<path id="Vector_12" d="M5.47266 22.5586C5.47266 22.8175 5.68247 23.0273 5.94141 23.0273C6.20034 23.0273 6.41016 22.8175 6.41016 22.5586C6.41016 21.7581 7.06559 21.1069 7.87134 21.1069H11.8758C12.1348 21.1069 12.3446 20.8971 12.3446 20.6382C12.3446 20.3792 12.1348 20.1694 11.8758 20.1694H7.87134C6.54872 20.1694 5.47266 21.2411 5.47266 22.5586Z" fill="#FB8276"/>
<path id="Vector_13" d="M13.751 21.1069H15.6953C15.9542 21.1069 16.164 20.8971 16.164 20.6382C16.164 20.3792 15.9542 20.1694 15.6953 20.1694H13.751C13.492 20.1694 13.2822 20.3792 13.2822 20.6382C13.2822 20.8971 13.492 21.1069 13.751 21.1069Z" fill="#FB8276"/>
<path id="Vector_14" d="M9.48535 13.9606C9.22641 13.9606 9.0166 14.1704 9.0166 14.4293C9.0166 14.6883 9.22641 14.8981 9.48535 14.8981C11.3505 14.8981 12.868 13.3871 12.868 11.5298C12.868 11.2709 12.6582 11.061 12.3992 11.061C12.1403 11.061 11.9305 11.2709 11.9305 11.5298C11.9305 12.8702 10.8336 13.9606 9.48535 13.9606Z" fill="#FB8276"/>
<path id="Vector_15" d="M11.5354 3.97495C10.4156 3.90308 9.44473 4.75201 9.3721 5.86801C9.35529 6.12639 9.5511 6.34939 9.80941 6.36626C9.81979 6.36695 9.8301 6.36726 9.84035 6.36726C10.0854 6.36726 10.2915 6.17689 10.3077 5.92895C10.3467 5.32845 10.8704 4.87239 11.4751 4.91051C11.7337 4.92776 11.9564 4.73126 11.973 4.47289C11.9897 4.21451 11.7937 3.99158 11.5354 3.97495Z" fill="#FB8276"/>
<path id="Vector_16" d="M9.95898 22.2563C9.70005 22.2563 9.49023 22.4662 9.49023 22.7251C9.49023 22.984 9.70005 23.1938 9.95898 23.1938C10.733 23.1938 11.3628 23.8194 11.3628 24.5883C11.3628 25.3573 10.733 25.9829 9.95898 25.9829C9.70005 25.9829 9.49023 26.1927 9.49023 26.4517C9.49023 26.7106 9.70005 26.9204 9.95898 26.9204C11.25 26.9204 12.3003 25.8743 12.3003 24.5883C12.3003 23.3025 11.25 22.2563 9.95898 22.2563Z" fill="#FB8276"/>
<path id="Vector_17" d="M14.7563 14.3955C14.4974 14.3955 14.2876 14.6053 14.2876 14.8643C14.2876 15.1232 14.4974 15.333 14.7563 15.333C15.8952 15.333 16.8216 14.41 16.8216 13.2756C16.8216 12.1412 15.8952 11.2183 14.7563 11.2183C14.4974 11.2183 14.2876 11.4281 14.2876 11.687C14.2876 11.9459 14.4974 12.1558 14.7563 12.1558C15.3782 12.1558 15.8841 12.6581 15.8841 13.2756C15.8841 13.8931 15.3782 14.3955 14.7563 14.3955Z" fill="#FB8276"/>
<path id="Vector_18" d="M6.49902 13.9639C8.08427 13.9639 9.37402 12.6795 9.37402 11.1008C9.37402 9.52211 8.08427 8.23779 6.49902 8.23779C6.24009 8.23779 6.03027 8.44761 6.03027 8.70654C6.03027 8.96548 6.24009 9.17529 6.49902 9.17529C7.5674 9.17529 8.43652 10.039 8.43652 11.1008C8.43652 12.1625 7.5674 13.0264 6.49902 13.0264C6.24009 13.0264 6.03027 13.2362 6.03027 13.4952C6.03027 13.754 6.24015 13.9639 6.49902 13.9639Z" fill="#FB8276"/>
<path id="Vector_19" d="M14.9313 0C13.4427 0 12.1073 0.867625 11.498 2.19431C11.4043 2.18763 11.3108 2.18425 11.2182 2.18425C9.05391 2.18425 7.28734 3.91213 7.23716 6.05525C7.05028 6.02863 6.86128 6.01519 6.67147 6.01519C4.47572 6.01519 2.68941 7.79381 2.68941 9.98C2.68941 10.4599 2.77359 10.9242 2.94009 11.3659C1.30109 12.3384 0.300781 14.0756 0.300781 16C0.300781 17.9014 1.32909 19.6769 2.95534 20.6425C2.78053 21.0952 2.68947 21.5799 2.68947 22.0667C2.68947 24.2529 4.47578 26.0314 6.67153 26.0314C6.86172 26.0314 7.05097 26.018 7.23803 25.9913C7.30466 28.1198 9.06453 29.8308 11.2182 29.8308C11.3131 29.8308 11.4088 29.8272 11.5048 29.8202C12.1174 31.1382 13.4501 32 14.9313 32C17.0137 32 18.7078 30.3133 18.7078 28.2399V3.76012C18.7078 1.68675 17.0137 0 14.9313 0ZM17.7703 3.81219H16.8687C16.6098 3.81219 16.4 4.022 16.4 4.28094C16.4 4.53988 16.6098 4.74969 16.8687 4.74969H17.7703V7.8715H13.979C13.1212 7.8715 12.4233 7.17812 12.4233 6.32587C12.4233 6.06694 12.2135 5.85712 11.9546 5.85712C11.6957 5.85712 11.4858 6.06694 11.4858 6.32587C11.4858 7.69506 12.6043 8.809 13.979 8.809H17.7703V16.7H10.1667C9.90772 16.7 9.69791 16.9098 9.69791 17.1688C9.69791 17.4277 9.90772 17.6375 10.1667 17.6375H17.7703V24.0735H16.3218C14.9992 24.0735 13.9232 25.1452 13.9232 26.4626C13.9232 26.7215 14.133 26.9313 14.3919 26.9313C14.6508 26.9313 14.8607 26.7215 14.8607 26.4626C14.8607 25.6622 15.5161 25.011 16.3218 25.011H17.7703V28.2399C17.7703 28.3135 17.7665 28.3862 17.761 28.4584H16.8687C16.6098 28.4584 16.4 28.6682 16.4 28.9272C16.4 29.1861 16.6098 29.3959 16.8687 29.3959H17.5202C17.0752 30.3773 16.0825 31.0625 14.9313 31.0625C13.8973 31.0625 12.9602 30.5046 12.4627 29.6329C13.0289 29.448 13.55 29.1371 13.989 28.7136C14.1753 28.5339 14.1806 28.2371 14.0008 28.0509C13.8211 27.8644 13.5243 27.8592 13.3381 28.0389C12.8962 28.4653 12.3453 28.7426 11.75 28.8466V28.8484C11.7423 28.8493 11.3853 28.8934 11.2182 28.8934C9.53934 28.8934 8.17353 27.5353 8.17353 25.866C8.17353 25.8233 8.17609 25.779 8.17816 25.7351C8.55653 25.5811 8.91197 25.3704 9.22897 25.1057C9.42772 24.9399 9.45428 24.6442 9.28834 24.4455C9.12241 24.2467 8.82672 24.2201 8.62809 24.3861C8.24709 24.7042 7.79403 24.9224 7.31241 25.0256V25.0258C7.10234 25.0707 6.88778 25.0939 6.67141 25.0939C4.99266 25.0939 3.62684 23.7359 3.62684 22.0667C3.62684 21.5694 3.74472 21.0951 3.97709 20.6571C3.98266 20.6466 3.99434 20.6249 3.99434 20.6249C4.27003 20.1187 4.68997 19.6917 5.21759 19.4059C5.44528 19.2826 5.52984 18.9982 5.40653 18.7706C5.28328 18.5428 4.99872 18.4581 4.77116 18.5816C4.21122 18.8849 3.74447 19.3103 3.39534 19.8137C2.05509 19.0074 1.23828 17.5818 1.23828 16C1.23828 14.6222 1.86009 13.3606 2.90809 12.5253C2.99991 12.4546 3.09309 12.3866 3.18753 12.322C3.90953 11.8279 4.78353 11.5384 5.72428 11.5384C5.98322 11.5384 6.19303 11.3286 6.19303 11.0696C6.19303 10.8107 5.98322 10.6009 5.72428 10.6009C5.04328 10.6009 4.39141 10.7268 3.79041 10.956C3.68266 10.6435 3.62703 10.3169 3.62703 9.98006C3.62703 8.31075 4.99278 6.95275 6.67159 6.95275C6.98716 6.95275 7.29934 7.00106 7.59947 7.09637C7.75328 7.14519 7.92134 7.1115 8.04441 7.00712C8.16753 6.90275 8.22822 6.7425 8.20522 6.58275C8.18428 6.43725 8.17366 6.29138 8.17366 6.14913C8.17366 4.47988 9.53947 3.12181 11.2183 3.12181C11.3832 3.12181 11.5517 3.13594 11.7193 3.1635C13.1605 3.40188 14.2628 4.64956 14.2628 6.14913C14.2628 6.40806 14.4727 6.61788 14.7316 6.61788C14.9905 6.61788 15.2003 6.40806 15.2003 6.14913C15.2003 4.39275 14.0469 2.90044 12.4548 2.38131C12.9497 1.50119 13.8903 0.9375 14.9313 0.9375C16.4967 0.9375 17.7703 2.20375 17.7703 3.76012V3.81219Z" fill="#FB8276"/>
</g>
<g id="Group_4">
<path id="Vector_20" d="M28.5354 11.4015C27.6542 11.4015 26.9375 10.6872 26.9375 9.80911C26.9375 8.93111 27.6543 8.2168 28.5354 8.2168C29.4164 8.2168 30.1332 8.93111 30.1332 9.80911C30.1332 10.6872 29.4164 11.4015 28.5354 11.4015Z" fill="#FFC502"/>
<path id="Vector_21" d="M30.1013 23.3986C29.2202 23.3986 28.5034 22.6842 28.5034 21.8062C28.5034 20.9282 29.2202 20.2139 30.1013 20.2139C30.9824 20.2139 31.6991 20.9282 31.6991 21.8062C31.6991 22.6843 30.9824 23.3986 30.1013 23.3986Z" fill="#FFC502"/>
<path id="Vector_22" d="M21.5354 16.4576C20.6543 16.4576 19.9375 15.7433 19.9375 14.8653C19.9375 13.9873 20.6543 13.2729 21.5354 13.2729C22.4165 13.2729 23.1332 13.9873 23.1332 14.8653C23.1333 15.7434 22.4165 16.4576 21.5354 16.4576Z" fill="#FFC502"/>
</g>
<g id="Group_5">
<path id="Vector_23" d="M24.3098 24.8845C23.4287 24.8845 22.7119 24.1701 22.7119 23.2921C22.7119 22.414 23.4287 21.6997 24.3098 21.6997C25.1909 21.6997 25.9077 22.414 25.9077 23.2921C25.9077 24.1702 25.1909 24.8845 24.3098 24.8845Z" fill="#33C7CA"/>
<path id="Vector_24" d="M25.8395 6.76226C24.9584 6.76226 24.2417 6.04795 24.2417 5.16989C24.2417 4.29189 24.9585 3.57764 25.8395 3.57764C26.7206 3.57764 27.4374 4.29195 27.4374 5.16989C27.4374 6.04801 26.7206 6.76226 25.8395 6.76226Z" fill="#33C7CA"/>
<path id="Vector_25" d="M29.1179 17.7804C28.2368 17.7804 27.52 17.0661 27.52 16.188C27.52 15.31 28.2368 14.5957 29.1179 14.5957C29.999 14.5957 30.7158 15.31 30.7158 16.188C30.7158 17.0661 29.999 17.7804 29.1179 17.7804Z" fill="#33C7CA"/>
<path id="Vector_26" d="M28.0613 28.2917C27.1801 28.2917 26.4634 27.5774 26.4634 26.6993C26.4634 25.8212 27.1802 25.1069 28.0613 25.1069C28.9424 25.1069 29.6591 25.8212 29.6591 26.6993C29.6591 27.5774 28.9424 28.2917 28.0613 28.2917Z" fill="#33C7CA"/>
</g>
<g id="Group_6">
<path id="Vector_27" d="M25.1111 20.8068C24.2299 20.8068 23.5132 20.0925 23.5132 19.2144C23.5132 18.3364 24.23 17.6221 25.1111 17.6221C25.9922 17.6221 26.7089 18.3364 26.7089 19.2144C26.709 20.0925 25.9922 20.8068 25.1111 20.8068Z" fill="#FFC502"/>
<path id="Vector_28" d="M23.8728 30.8283C22.9917 30.8283 22.2749 30.114 22.2749 29.2359C22.2749 28.3579 22.9917 27.6436 23.8728 27.6436C24.7539 27.6436 25.4707 28.3579 25.4707 29.2359C25.4707 30.114 24.7539 30.8283 23.8728 30.8283Z" fill="#FFC502"/>
</g>
</g>
<defs>
<clipPath id="clip0_321_27162">
<rect width="32" height="32" fill="white"/>
</clipPath>
</defs>
</svg>
