<svg width="32" height="32" viewBox="0 0 32 32" fill="none" xmlns="http://www.w3.org/2000/svg">
<g id="shuttle 1" clip-path="url(#clip0_310_22650)">
<path id="Vector" d="M13.8623 8.72042C13.6797 8.41549 13.3403 8.24043 12.9858 8.26736L5.36744 8.85586C4.59613 8.91548 3.90907 9.31973 3.48233 9.9651L0.285165 14.8008C-0.038395 15.2902 -0.0898946 15.9027 0.147479 16.4392C0.384789 16.9757 0.872598 17.3495 1.45228 17.4393L7.62973 18.3961C7.67779 18.4035 7.72579 18.4072 7.77342 18.4072C8.08985 18.4072 8.38923 18.2467 8.56316 17.9746L13.8479 9.70698C14.0394 9.40742 14.0449 9.02542 13.8623 8.72042Z" fill="#E45A6E"/>
<path id="Vector_2" d="M23.2795 18.1376C22.9745 17.955 22.5925 17.9605 22.293 18.152L14.0254 23.4367C13.7123 23.6368 13.547 24.003 13.6038 24.3702L14.5606 30.5476C14.6504 31.1274 15.0243 31.6151 15.5608 31.8525C15.7839 31.9512 16.0202 31.9998 16.2553 31.9998C16.5854 31.9998 16.9133 31.9037 17.1991 31.7148L22.0349 28.5176C22.6803 28.0909 23.0846 27.4038 23.1441 26.6325L23.7326 19.0141C23.76 18.6597 23.5845 18.3203 23.2795 18.1376Z" fill="#D82E44"/>
<path id="Vector_3" d="M12.0541 25.7672C12.4272 26.1403 12.9574 26.3149 13.4778 26.2278C21.1098 24.9517 27.149 18.6327 29.4482 14.1876C32.0012 9.25176 32.0958 4.0358 31.9624 1.58957C31.9166 0.751324 31.2484 0.0831416 30.4102 0.0373919C27.964 -0.0959821 22.7481 -0.00142025 17.8122 2.55162C13.3671 4.85079 7.04812 10.8901 5.77201 18.522C5.68501 19.0424 5.85951 19.5726 6.23263 19.9457L12.0541 25.7672Z" fill="#F1F1FB"/>
<path id="Vector_4" d="M31.4837 0.516357L9.14355 22.8565L12.0543 25.7672C12.4274 26.1403 12.9576 26.3148 13.478 26.2278C21.11 24.9517 27.1492 18.6328 29.4484 14.1877C32.0014 9.25185 32.096 4.03589 31.9626 1.58966C31.9397 1.17054 31.7612 0.793918 31.4837 0.516357Z" fill="#D7D6FB"/>
<path id="Vector_5" d="M21.9209 14.7648C20.7204 14.7649 19.5203 14.308 18.6064 13.3941C17.721 12.5088 17.2334 11.3316 17.2334 10.0796C17.2334 8.8275 17.721 7.65032 18.6064 6.76502C20.4339 4.93741 23.4077 4.93735 25.2354 6.76502C26.1208 7.65032 26.6083 8.8275 26.6083 10.0796C26.6083 11.3316 26.1208 12.5088 25.2354 13.3941C24.3217 14.3078 23.1211 14.7647 21.9209 14.7648Z" fill="#466288"/>
<path id="Vector_6" d="M5.77201 18.522C5.68501 19.0425 5.85951 19.5727 6.23263 19.9458L12.0541 25.7672C12.4272 26.1404 12.9574 26.3149 13.4778 26.2279C15.1385 25.9502 16.7236 25.4335 18.2113 24.7496L7.25025 13.7886C6.56631 15.2763 6.04969 16.8614 5.77201 18.522Z" fill="#466288"/>
<path id="Vector_7" d="M0.956023 26.3709C1.1959 26.3709 1.4359 26.2793 1.6189 26.0963L4.67971 23.0355C5.04584 22.6694 5.04584 22.0758 4.67971 21.7097C4.31365 21.3435 3.72009 21.3435 3.3539 21.7097L0.293148 24.7705C-0.0729766 25.1365 -0.0729766 25.7302 0.293148 26.0963C0.476211 26.2794 0.716086 26.3709 0.956023 26.3709Z" fill="#FDB43A"/>
<path id="Vector_8" d="M7.48503 24.5148C7.11897 24.1487 6.52534 24.1487 6.15922 24.5148L0.274594 30.3994C-0.0915312 30.7655 -0.0915312 31.3591 0.274594 31.7252C0.457656 31.9083 0.697594 31.9998 0.937531 31.9998C1.17747 31.9998 1.41741 31.9082 1.60041 31.7252L7.48503 25.8405C7.85116 25.4745 7.85116 24.8808 7.48503 24.5148Z" fill="#FDB43A"/>
<path id="Vector_9" d="M10.2901 27.32C9.924 26.9539 9.33038 26.9539 8.96425 27.32L5.9035 30.3807C5.53738 30.7468 5.53738 31.3404 5.9035 31.7065C6.08656 31.8896 6.3265 31.9811 6.56638 31.9811C6.80625 31.9811 7.04625 31.8896 7.22925 31.7065L10.2901 28.6457C10.6562 28.2796 10.6562 27.686 10.2901 27.32Z" fill="#F57A21"/>
<path id="Vector_10" d="M0.274414 31.7251C0.457477 31.9082 0.697414 31.9997 0.937352 31.9997C1.17729 31.9997 1.41723 31.9081 1.60023 31.7251L7.48485 25.8405C7.85098 25.4744 7.85098 24.8808 7.48485 24.5146L0.274414 31.7251Z" fill="#F57A21"/>
<path id="Vector_11" d="M9.14355 22.8565L12.0543 25.7672C12.4274 26.1403 12.9576 26.3148 13.478 26.2278C15.1387 25.9501 16.7238 25.4335 18.2115 24.7496L12.731 19.269L9.14355 22.8565Z" fill="#354A67"/>
<path id="Vector_12" d="M18.6064 13.394C19.5204 14.3079 20.7204 14.7648 21.921 14.7647C23.1212 14.7646 24.3218 14.3076 25.2355 13.394C26.1208 12.5086 26.6084 11.3315 26.6084 10.0794C26.6084 8.82738 26.1208 7.6502 25.2355 6.76489L18.6064 13.394Z" fill="#354A67"/>
<path id="Vector_13" d="M21.9209 7.26831C21.2007 7.26831 20.4805 7.54244 19.9322 8.09075C19.401 8.62194 19.1084 9.32819 19.1084 10.0794C19.1084 10.8307 19.401 11.5369 19.9322 12.0681C21.0288 13.1647 22.8131 13.1647 23.9097 12.0681C24.4409 11.5369 24.7335 10.8306 24.7335 10.0794C24.7335 9.32812 24.4409 8.62187 23.9097 8.09069C23.3614 7.54244 22.6412 7.26831 21.9209 7.26831Z" fill="#4BBEFD"/>
<path id="Vector_14" d="M23.9091 8.09082L19.9316 12.0683C21.0282 13.1648 22.8126 13.1649 23.9091 12.0683C24.4403 11.537 24.7328 10.8308 24.7328 10.0795C24.7328 9.32826 24.4403 8.62201 23.9091 8.09082Z" fill="#0590FB"/>
</g>
<defs>
<clipPath id="clip0_310_22650">
<rect width="32" height="32" fill="white"/>
</clipPath>
</defs>
</svg>
