<svg width="32" height="32" viewBox="0 0 32 32" fill="none" xmlns="http://www.w3.org/2000/svg">
<g id="Frame 1000002854">
<g id="_x35_4">
<g id="Group">
<g id="Group_2">
<g id="Group_3">
<g id="Group_4">
<g id="Group_5">
<path id="Vector" d="M31.015 16.0147L28.0578 17.1162H28.0511L20.9617 19.7597L18.8589 20.5474L10.9485 23.4913L9.54001 24.012L9.11945 24.1722C8.9993 24.2189 8.86578 24.2456 8.73894 24.2523C8.69889 24.259 8.66552 24.259 8.62547 24.259C8.10476 24.259 7.61079 23.9719 7.3638 23.4913C7.33707 23.4446 7.31706 23.3911 7.29702 23.3378L5.96192 19.7597L4.94059 17.0027L3.6856 13.6383L3.08479 12.0295C2.81112 11.2952 3.18494 10.4808 3.91923 10.2071L21.9897 3.47154H21.9964L25.8148 2.04966C26.5491 1.77594 27.3635 2.14976 27.6372 2.88409L31.8494 14.199C32.1231 14.9266 31.7493 15.7411 31.015 16.0147Z" fill="#63C558"/>
</g>
</g>
<g id="Group_6">
<g id="Group_7">
<path id="Vector_2" d="M31.0158 16.0147L28.0586 17.1162H28.0519L20.9625 19.7597L18.8597 20.5474L10.9493 23.4913L9.54079 24.012L9.12023 24.1722C9.00008 24.2189 8.86656 24.2456 8.73973 24.2523C8.69967 24.259 8.66631 24.259 8.62625 24.259C8.10555 24.259 7.61157 23.9719 7.36458 23.4913C7.33785 23.4446 7.31785 23.3911 7.2978 23.3378C6.85055 22.1295 7.15096 20.8211 7.97871 19.9399C8.03213 19.8799 8.09887 19.8198 8.15896 19.7597C8.40595 19.5327 8.68631 19.3458 9.00008 19.199C9.0735 19.1656 9.16028 19.1322 9.24039 19.0988L14.8544 17.0027L16.0026 16.5755C16.3364 16.4487 16.6568 16.3085 16.9639 16.1483C18.1855 15.5275 19.2069 14.6329 19.9746 13.5782C20.1748 13.3179 20.355 13.0508 20.5219 12.7705C20.5219 12.7638 20.5219 12.7638 20.5219 12.7638C21.2829 11.4421 21.6968 9.9334 21.6968 8.378C21.6968 7.87734 21.6568 7.37668 21.57 6.87602C21.4966 6.4755 21.4031 6.08163 21.2762 5.6878C21.2362 5.57429 21.1961 5.45413 21.1494 5.33398C20.8691 4.58633 21.2496 3.75858 21.9905 3.47154H21.9972L25.8156 2.04966C26.5499 1.77594 27.3643 2.14976 27.638 2.88409L31.8502 14.199C32.1239 14.9266 31.7501 15.7411 31.0158 16.0147Z" fill="#58B44F"/>
</g>
</g>
<g id="Group_8">
<g id="Group_9">
<path id="Vector_3" d="M27.9247 15.5349C27.898 15.4481 27.8646 15.368 27.8312 15.2812C27.8312 15.2745 27.8312 15.2611 27.8245 15.2545H27.8179C27.651 14.8606 27.3906 14.5135 27.0702 14.2398C26.9233 14.113 26.7631 14.0061 26.5896 13.9127C26.1957 13.6924 25.7418 13.5723 25.2611 13.5723H23.9861C23.9394 13.5723 23.8927 13.5723 23.8526 13.5789H4.22671C4.03978 13.5789 3.85957 13.599 3.686 13.639C2.40432 13.8793 1.42969 15.0142 1.42969 16.376V17.0034V19.7604V28.2049C1.42969 25.6081 3.53912 23.492 6.14257 23.492H7.3642C7.61119 23.9726 8.10516 24.2597 8.62587 24.2597C8.66592 24.2597 8.69929 24.2597 8.73934 24.253L7.49103 25.5013L6.45634 24.4667L3.86625 27.0501L6.45634 29.6335L7.93828 28.1515L9.42021 29.6335L12.0037 27.0501L11.5564 26.6028L11.8434 26.3157L10.4616 24.9339L9.54041 24.0127L10.9489 23.492H14.0597C15.5483 23.492 16.8834 22.8979 17.858 21.9166C18.2586 21.5161 18.599 21.0621 18.8593 20.5481L20.9621 19.7604L28.0515 17.1169H28.0582V17.0034V16.376C28.0582 16.0823 28.0114 15.8019 27.9247 15.5349Z" fill="#4B9B43"/>
</g>
</g>
<g id="Group_10">
<g id="Group_11">
<path id="Vector_4" d="M27.8179 15.2546L23.1317 17.0036L23.1116 17.0103L19.4201 18.3854L15.7286 19.7606L8.86619 22.3173L7.97834 19.9408L7.9116 19.7606L6.89023 17.0036L5.61523 13.5791H6.91028L8.18528 17.0036L8.99971 19.1998L9.21329 19.7606L9.2667 19.9208L9.58047 20.7552L10.515 20.4081L12.2507 19.7606L19.5603 17.037L19.6337 17.0103L19.6537 17.0036L27.0702 14.24C27.3906 14.5136 27.651 14.8608 27.8179 15.2546Z" fill="#3F8441"/>
</g>
</g>
<g id="Group_12">
<g id="Group_13">
<g id="Group_14">
<path id="Vector_5" d="M26.0693 3.90674L21.2763 5.68912L4.94141 11.7772L5.61564 13.5795L6.89063 17.004L7.912 19.761L7.97874 19.9413L8.86659 22.3177L15.729 19.761L19.4205 18.3859L23.112 17.0107L23.1321 17.004L27.8183 15.2551H27.8249L29.9945 14.4473L26.0693 3.90674ZM27.5913 14.0468L27.0706 14.2404L19.6541 17.004L19.6341 17.0107L19.5607 17.0374L12.2511 19.761L10.5154 20.4085L9.58087 20.7557L9.2671 19.9212L9.21369 19.761L9.00011 19.2003L8.18568 17.004L6.91068 13.5795L6.81721 13.3259L6.50345 12.4914L7.43803 12.1443L21.57 6.87733L24.5139 5.78255L25.355 5.46882L25.6688 6.31662L28.1186 12.8919L28.4324 13.7331L27.5913 14.0468Z" fill="#387538"/>
</g>
</g>
</g>
<g id="Group_15">
<g id="Group_16">
<path id="Vector_6" d="M17.4673 16.187C19.1654 16.187 20.542 14.8104 20.542 13.1123C20.542 11.4142 19.1654 10.0376 17.4673 10.0376C15.7692 10.0376 14.3926 11.4142 14.3926 13.1123C14.3926 14.8104 15.7692 16.187 17.4673 16.187Z" fill="#4B9B43"/>
</g>
</g>
<g id="Group_17">
<g id="Group_18">
<path id="Vector_7" d="M17.8154 10.9777C18.404 12.5581 17.5999 14.3164 16.0195 14.905C15.6439 15.0449 15.5803 15.5695 15.9271 15.7705C16.8706 16.3174 18.0938 16.3598 19.1483 15.6894C20.1523 15.0511 20.6973 13.8363 20.5111 12.6612C20.3229 11.4729 19.534 10.6092 18.5498 10.2421C18.0927 10.0715 17.6451 10.5204 17.8154 10.9777Z" fill="#3F8441"/>
</g>
</g>
<g id="Group_19">
<g id="Group_20">
<path id="Vector_8" d="M5.85137 11.0692C5.60495 11.0692 5.37288 10.9179 5.28161 10.6731C5.16427 10.3583 5.32463 10.0082 5.63885 9.89087L8.11608 8.96843C8.4329 8.85043 8.78102 9.01112 8.89836 9.32632C9.01571 9.64119 8.85534 9.99126 8.54112 10.1086L6.06389 11.031C5.99349 11.0571 5.92178 11.0692 5.85137 11.0692Z" fill="#6FD161"/>
</g>
</g>
</g>
<g id="Group_21">
<g id="Group_22">
<g id="Group_23">
<path id="Vector_9" d="M25.354 6.36905C25.8509 6.36905 26.2538 5.96617 26.2538 5.46919C26.2538 4.97221 25.8509 4.56934 25.354 4.56934C24.857 4.56934 24.4541 4.97221 24.4541 5.46919C24.4541 5.96617 24.857 6.36905 25.354 6.36905Z" fill="#3F8441"/>
</g>
</g>
<g id="Group_24">
<g id="Group_25">
<path id="Vector_10" d="M28.4311 14.6337C28.9281 14.6337 29.331 14.2308 29.331 13.7338C29.331 13.2369 28.9281 12.834 28.4311 12.834C27.9341 12.834 27.5312 13.2369 27.5312 13.7338C27.5312 14.2308 27.9341 14.6337 28.4311 14.6337Z" fill="#3F8441"/>
</g>
</g>
</g>
<g id="Group_26">
<g id="Group_27">
<g id="Group_28">
<path id="Vector_11" d="M6.59419 13.3568C7.09117 13.3568 7.49404 12.954 7.49404 12.457C7.49404 11.96 7.09117 11.5571 6.59419 11.5571C6.09721 11.5571 5.69434 11.96 5.69434 12.457C5.69434 12.954 6.09721 13.3568 6.59419 13.3568Z" fill="#3F8441"/>
</g>
</g>
<g id="Group_29">
<g id="Group_30">
<path id="Vector_12" d="M9.67231 21.621C10.1693 21.621 10.5722 21.2181 10.5722 20.7211C10.5722 20.2242 10.1693 19.8213 9.67231 19.8213C9.17534 19.8213 8.77246 20.2242 8.77246 20.7211C8.77246 21.2181 9.17534 21.621 9.67231 21.621Z" fill="#3F8441"/>
</g>
</g>
</g>
</g>
<g id="Group_31">
<g id="Group_32">
<g id="Group_33">
<path id="Vector_13" d="M23.8279 30.0296H2.79747C1.25247 30.0296 0 28.7771 0 27.2321V15.3995C0 13.8545 1.25247 12.6021 2.79747 12.6021H23.8279C25.3729 12.6021 26.6254 13.8545 26.6254 15.3995V27.2321C26.6254 28.7771 25.3729 30.0296 23.8279 30.0296Z" fill="#63AFFA"/>
</g>
</g>
<g id="Group_34">
<g id="Group_35">
<path id="Vector_14" d="M26.6221 15.399V27.2293C26.6221 28.7795 25.3738 30.0277 23.8318 30.0277H2.79846C2.02336 30.0277 1.32172 29.7177 0.815878 29.2119C0.310038 28.706 0 28.0044 0 27.2293C0 24.6348 2.10498 22.5216 4.70763 22.5216H12.6298C14.1147 22.5216 15.4527 21.9261 16.4236 20.947C17.0192 20.3514 17.4843 19.6171 17.7453 18.785C17.9085 18.271 17.9983 17.7243 17.9983 17.1532C17.9983 16.7697 18.0472 16.3944 18.137 16.0355C18.6347 14.061 20.4214 12.6006 22.5509 12.6006H23.8318C25.3738 12.6006 26.6221 13.857 26.6221 15.399Z" fill="#529FFB"/>
</g>
</g>
<g id="Group_36">
<g id="Group_37">
<path id="Vector_15" d="M7.9873 23.4873L10.5726 26.0726L7.98731 28.6579L5.40201 26.0726L7.9873 23.4873Z" fill="#4B97E2"/>
</g>
</g>
<g id="Group_38">
<g id="Group_39">
<path id="Vector_16" d="M5.02246 23.4873L7.60776 26.0726L5.02246 28.6579L2.43717 26.0726L5.02246 23.4873Z" fill="#4B97E2"/>
</g>
</g>
<g id="Group_40">
<g id="Group_41">
<path id="Vector_17" d="M7.82715 22.7539L10.4124 25.3392L7.82715 27.9245L5.24185 25.3392L7.82715 22.7539Z" fill="#F7CC6D"/>
</g>
</g>
<g id="Group_42">
<g id="Group_43">
<path id="Vector_18" d="M8.32423 24.2484V25.2686C8.32423 25.8994 7.81288 26.4108 7.18209 26.4108H6.92953C6.70044 26.4108 6.58572 26.6877 6.7477 26.8497L7.82569 27.9278L10.4109 25.3425L9.02609 23.9577C8.76708 23.6987 8.32423 23.8821 8.32423 24.2484Z" fill="#F4BC5F"/>
</g>
</g>
<g id="Group_44">
<g id="Group_45">
<path id="Vector_19" d="M0 16.0312H26.6251V18.7849H0V16.0312Z" fill="#626681"/>
</g>
</g>
<g id="Group_46">
<g id="Group_47">
<path id="Vector_20" d="M26.6229 16.0352V18.7847H17.7461C17.9093 18.2707 17.999 17.724 17.999 17.1529C17.999 16.7694 18.048 16.3941 18.1377 16.0352H26.6229Z" fill="#4D5471"/>
</g>
</g>
</g>
<g id="Group_48">
<g id="Group_49">
<g id="Group_50">
<g id="Group_51">
<path id="Vector_21" d="M31.1487 27.7141V29.252C31.1487 29.6914 30.7933 30.0403 30.3604 30.0403H18.5354C18.1025 30.0403 17.7471 29.6914 17.7471 29.252V27.7141C17.7471 27.2747 18.1025 26.9258 18.5354 26.9258H30.3604C30.7933 26.9258 31.1487 27.2747 31.1487 27.7141Z" fill="#F9D78D"/>
</g>
</g>
<g id="Group_52">
<g id="Group_53">
<path id="Vector_22" d="M31.1487 27.717V29.2549C31.1487 29.6943 30.7933 30.0433 30.3604 30.0433H18.5354C18.1025 30.0433 17.7471 29.6943 17.7471 29.2549V29.1968H26.2765C26.6319 29.1968 26.955 29.074 27.207 28.8608C27.2393 28.8285 27.2716 28.8026 27.304 28.7703C27.5689 28.5054 27.7304 28.137 27.7304 27.7364C27.7304 27.2906 28.0923 26.9287 28.5446 26.9287H30.3604C30.7933 26.9287 31.1487 27.2776 31.1487 27.717Z" fill="#F7CC6D"/>
</g>
</g>
<g id="Group_54">
<g id="Group_55">
<g id="Group_56">
<g id="Group_57">
<path id="Vector_23" d="M20.668 28.5744V30.0412H19.5049V28.5744C19.5049 28.219 19.7698 27.9282 20.0864 27.9282C20.4095 27.9282 20.668 28.219 20.668 28.5744Z" fill="#F4BC5F"/>
</g>
</g>
</g>
<g id="Group_58">
<g id="Group_59">
<g id="Group_60">
<path id="Vector_24" d="M22.8526 28.5739V30.0407H21.6895V28.5739C21.6895 28.2185 21.9479 27.9277 22.271 27.9277C22.5876 27.9277 22.8526 28.2185 22.8526 28.5739Z" fill="#F4BC5F"/>
</g>
</g>
</g>
<g id="Group_61">
<g id="Group_62">
<g id="Group_63">
<path id="Vector_25" d="M25.0293 28.5739V30.0407H23.8662V28.5739C23.8662 28.2185 24.1247 27.9277 24.4477 27.9277C24.7708 27.9277 25.0293 28.2185 25.0293 28.5739Z" fill="#F4BC5F"/>
</g>
</g>
</g>
<g id="Group_64">
<g id="Group_65">
<g id="Group_66">
<path id="Vector_26" d="M27.207 28.5744V30.0412H26.0439V28.5744C26.0439 28.219 26.3089 27.9282 26.6255 27.9282C26.9486 27.9282 27.207 28.219 27.207 28.5744Z" fill="#F4BC5F"/>
</g>
</g>
<g id="Group_67">
<g id="Group_68">
<path id="Vector_27" d="M20.668 28.5744V30.0412H19.5049V28.5744C19.5049 28.219 19.7698 27.9282 20.0864 27.9282C20.4095 27.9282 20.668 28.219 20.668 28.5744Z" fill="#F7CC6D"/>
</g>
</g>
<g id="Group_69">
<g id="Group_70">
<path id="Vector_28" d="M22.8526 28.5744V30.0412H21.6895V28.5744C21.6895 28.219 21.9479 27.9282 22.271 27.9282C22.5876 27.9282 22.8526 28.219 22.8526 28.5744Z" fill="#F7CC6D"/>
</g>
</g>
<g id="Group_71">
<g id="Group_72">
<path id="Vector_29" d="M25.0293 28.5744V30.0412H23.8662V28.5744C23.8662 28.219 24.1247 27.9282 24.4477 27.9282C24.7708 27.9282 25.0293 28.219 25.0293 28.5744Z" fill="#F7CC6D"/>
</g>
</g>
<g id="Group_73">
<g id="Group_74">
<path id="Vector_30" d="M27.207 28.5744V30.0412H26.0439V28.5744C26.0439 28.219 26.3089 27.9282 26.6255 27.9282C26.9486 27.9282 27.207 28.219 27.207 28.5744Z" fill="#F7CC6D"/>
</g>
</g>
<g id="Group_75">
<g id="Group_76">
<path id="Vector_31" d="M19.5049 29.1968H20.6678V30.0432H19.5049V29.1968Z" fill="#F4BC5F"/>
</g>
</g>
<g id="Group_77">
<g id="Group_78">
<path id="Vector_32" d="M21.6895 29.1968H22.8523V30.0432H21.6895V29.1968Z" fill="#F4BC5F"/>
</g>
</g>
<g id="Group_79">
<g id="Group_80">
<path id="Vector_33" d="M23.8662 29.1968H25.0291V30.0432H23.8662V29.1968Z" fill="#F4BC5F"/>
</g>
</g>
<g id="Group_81">
<g id="Group_82">
<path id="Vector_34" d="M27.207 28.8608V30.0433H26.0439V29.1969H26.2766C26.6319 29.1969 26.955 29.0741 27.207 28.8608Z" fill="#F4BC5F"/>
</g>
</g>
</g>
<g id="Group_83">
<g id="Group_84">
<g id="Group_85">
<path id="Vector_35" d="M29.3916 28.5739V30.0407H28.2285V28.5739C28.2285 28.2185 28.487 27.9277 28.81 27.9277C29.1267 27.9277 29.3916 28.2185 29.3916 28.5739Z" fill="#F4BC5F"/>
</g>
</g>
</g>
</g>
</g>
<g id="Group_86">
<g id="Group_87">
<g id="Group_88">
<path id="Vector_36" d="M32.0002 24.5984V26.1363C32.0002 26.5757 31.6448 26.9246 31.2119 26.9246H19.387C18.954 26.9246 18.5986 26.5757 18.5986 26.1363V24.5984C18.5986 24.159 18.954 23.8101 19.387 23.8101H31.2119C31.6448 23.8101 32.0002 24.159 32.0002 24.5984Z" fill="#F9D78D"/>
</g>
</g>
<g id="Group_89">
<g id="Group_90">
<path id="Vector_37" d="M32.0002 24.6008V26.1387C32.0002 26.5781 31.6448 26.9271 31.2119 26.9271H19.387C18.954 26.9271 18.5986 26.5781 18.5986 26.1387V26.0806H27.1281C27.4835 26.0806 27.8066 25.9578 28.0586 25.7445C28.0909 25.7122 28.1232 25.6864 28.1555 25.6541C28.4205 25.3892 28.582 25.0208 28.582 24.6202C28.582 24.1744 28.9438 23.8125 29.3962 23.8125H31.2119C31.6448 23.8125 32.0002 24.1614 32.0002 24.6008Z" fill="#F7CC6D"/>
</g>
</g>
<g id="Group_91">
<g id="Group_92">
<g id="Group_93">
<g id="Group_94">
<path id="Vector_38" d="M21.5195 25.4587V26.9255H20.3564V25.4587C20.3564 25.1033 20.6214 24.8125 20.938 24.8125C21.2611 24.8125 21.5195 25.1033 21.5195 25.4587Z" fill="#F4BC5F"/>
</g>
</g>
</g>
<g id="Group_95">
<g id="Group_96">
<g id="Group_97">
<path id="Vector_39" d="M23.7041 25.4587V26.9255H22.541V25.4587C22.541 25.1033 22.7995 24.8125 23.1225 24.8125C23.4392 24.8125 23.7041 25.1033 23.7041 25.4587Z" fill="#F4BC5F"/>
</g>
</g>
</g>
<g id="Group_98">
<g id="Group_99">
<g id="Group_100">
<path id="Vector_40" d="M25.8809 25.4587V26.9255H24.7178V25.4587C24.7178 25.1033 24.9762 24.8125 25.2993 24.8125C25.6224 24.8125 25.8809 25.1033 25.8809 25.4587Z" fill="#F4BC5F"/>
</g>
</g>
</g>
<g id="Group_101">
<g id="Group_102">
<g id="Group_103">
<path id="Vector_41" d="M28.0586 25.4587V26.9255H26.8955V25.4587C26.8955 25.1033 27.1604 24.8125 27.477 24.8125C27.8001 24.8125 28.0586 25.1033 28.0586 25.4587Z" fill="#F4BC5F"/>
</g>
</g>
<g id="Group_104">
<g id="Group_105">
<path id="Vector_42" d="M21.5195 25.4587V26.9255H20.3564V25.4587C20.3564 25.1033 20.6214 24.8125 20.938 24.8125C21.2611 24.8125 21.5195 25.1033 21.5195 25.4587Z" fill="#F7CC6D"/>
</g>
</g>
<g id="Group_106">
<g id="Group_107">
<path id="Vector_43" d="M23.7041 25.4587V26.9255H22.541V25.4587C22.541 25.1033 22.7995 24.8125 23.1225 24.8125C23.4392 24.8125 23.7041 25.1033 23.7041 25.4587Z" fill="#F7CC6D"/>
</g>
</g>
<g id="Group_108">
<g id="Group_109">
<path id="Vector_44" d="M25.8809 25.4587V26.9255H24.7178V25.4587C24.7178 25.1033 24.9762 24.8125 25.2993 24.8125C25.6224 24.8125 25.8809 25.1033 25.8809 25.4587Z" fill="#F7CC6D"/>
</g>
</g>
<g id="Group_110">
<g id="Group_111">
<path id="Vector_45" d="M28.0586 25.4587V26.9255H26.8955V25.4587C26.8955 25.1033 27.1604 24.8125 27.477 24.8125C27.8001 24.8125 28.0586 25.1033 28.0586 25.4587Z" fill="#F7CC6D"/>
</g>
</g>
<g id="Group_112">
<g id="Group_113">
<path id="Vector_46" d="M20.3564 26.0811H21.5193V26.9275H20.3564V26.0811Z" fill="#F4BC5F"/>
</g>
</g>
<g id="Group_114">
<g id="Group_115">
<path id="Vector_47" d="M22.54 26.0811H23.7029V26.9275H22.54V26.0811Z" fill="#F4BC5F"/>
</g>
</g>
<g id="Group_116">
<g id="Group_117">
<path id="Vector_48" d="M24.7188 26.0811H25.8816V26.9275H24.7188V26.0811Z" fill="#F4BC5F"/>
</g>
</g>
<g id="Group_118">
<g id="Group_119">
<path id="Vector_49" d="M28.0596 25.7451V26.9276H26.8965V26.0811H27.1291C27.4845 26.0811 27.8076 25.9584 28.0596 25.7451Z" fill="#F4BC5F"/>
</g>
</g>
</g>
<g id="Group_120">
<g id="Group_121">
<g id="Group_122">
<path id="Vector_50" d="M30.2432 25.4587V26.9255H29.0801V25.4587C29.0801 25.1033 29.3385 24.8125 29.6616 24.8125C29.9782 24.8125 30.2432 25.1033 30.2432 25.4587Z" fill="#F4BC5F"/>
</g>
</g>
</g>
</g>
</g>
<g id="Group_123">
<g id="Group_124">
<g id="Group_125">
<path id="Vector_51" d="M30.8694 21.428V22.9659C30.8694 23.4052 30.514 23.7542 30.0811 23.7542H18.2561C17.8232 23.7542 17.4678 23.4052 17.4678 22.9659V21.428C17.4678 20.9886 17.8232 20.6396 18.2561 20.6396H30.0811C30.514 20.6396 30.8694 20.9886 30.8694 21.428Z" fill="#F9D78D"/>
</g>
</g>
<g id="Group_126">
<g id="Group_127">
<path id="Vector_52" d="M30.8694 21.4309V22.9688C30.8694 23.4082 30.514 23.7571 30.0811 23.7571H18.2561C17.8232 23.7571 17.4678 23.4082 17.4678 22.9688V22.9106H25.9972C26.3526 22.9106 26.6757 22.7879 26.9277 22.5746C26.96 22.5423 26.9923 22.5165 27.0247 22.4842C27.2896 22.2192 27.4511 21.8509 27.4511 21.4503C27.4511 21.0044 27.813 20.6426 28.2653 20.6426H30.0811C30.514 20.6426 30.8694 20.9915 30.8694 21.4309Z" fill="#F7CC6D"/>
</g>
</g>
<g id="Group_128">
<g id="Group_129">
<g id="Group_130">
<g id="Group_131">
<path id="Vector_53" d="M20.3887 22.2878V23.7546H19.2256V22.2878C19.2256 21.9324 19.4905 21.6416 19.8071 21.6416C20.1302 21.6416 20.3887 21.9324 20.3887 22.2878Z" fill="#F4BC5F"/>
</g>
</g>
</g>
<g id="Group_132">
<g id="Group_133">
<g id="Group_134">
<path id="Vector_54" d="M22.5733 22.2878V23.7546H21.4102V22.2878C21.4102 21.9324 21.6686 21.6416 21.9917 21.6416C22.3083 21.6416 22.5733 21.9324 22.5733 22.2878Z" fill="#F4BC5F"/>
</g>
</g>
</g>
<g id="Group_135">
<g id="Group_136">
<g id="Group_137">
<path id="Vector_55" d="M24.751 22.2878V23.7546H23.5879V22.2878C23.5879 21.9324 23.8463 21.6416 24.1694 21.6416C24.4925 21.6416 24.751 21.9324 24.751 22.2878Z" fill="#F4BC5F"/>
</g>
</g>
</g>
<g id="Group_138">
<g id="Group_139">
<g id="Group_140">
<path id="Vector_56" d="M26.9278 22.2883V23.755H25.7646V22.2883C25.7646 21.9329 26.0296 21.6421 26.3462 21.6421C26.6693 21.6421 26.9278 21.9329 26.9278 22.2883Z" fill="#F4BC5F"/>
</g>
</g>
<g id="Group_141">
<g id="Group_142">
<path id="Vector_57" d="M20.3887 22.2883V23.755H19.2256V22.2883C19.2256 21.9329 19.4905 21.6421 19.8071 21.6421C20.1302 21.6421 20.3887 21.9329 20.3887 22.2883Z" fill="#F7CC6D"/>
</g>
</g>
<g id="Group_143">
<g id="Group_144">
<path id="Vector_58" d="M22.5733 22.2883V23.755H21.4102V22.2883C21.4102 21.9329 21.6686 21.6421 21.9917 21.6421C22.3083 21.6421 22.5733 21.9329 22.5733 22.2883Z" fill="#F7CC6D"/>
</g>
</g>
<g id="Group_145">
<g id="Group_146">
<path id="Vector_59" d="M24.751 22.2883V23.755H23.5879V22.2883C23.5879 21.9329 23.8463 21.6421 24.1694 21.6421C24.4925 21.6421 24.751 21.9329 24.751 22.2883Z" fill="#F7CC6D"/>
</g>
</g>
<g id="Group_147">
<g id="Group_148">
<path id="Vector_60" d="M26.9278 22.2883V23.755H25.7646V22.2883C25.7646 21.9329 26.0296 21.6421 26.3462 21.6421C26.6693 21.6421 26.9278 21.9329 26.9278 22.2883Z" fill="#F7CC6D"/>
</g>
</g>
<g id="Group_149">
<g id="Group_150">
<path id="Vector_61" d="M19.2256 22.9106H20.3885V23.7571H19.2256V22.9106Z" fill="#F4BC5F"/>
</g>
</g>
<g id="Group_151">
<g id="Group_152">
<path id="Vector_62" d="M21.4102 22.9106H22.573V23.7571H21.4102V22.9106Z" fill="#F4BC5F"/>
</g>
</g>
<g id="Group_153">
<g id="Group_154">
<path id="Vector_63" d="M23.5869 22.9106H24.7498V23.7571H23.5869V22.9106Z" fill="#F4BC5F"/>
</g>
</g>
<g id="Group_155">
<g id="Group_156">
<path id="Vector_64" d="M26.9278 22.5747V23.7572H25.7646V22.9107H25.9973C26.3526 22.9107 26.6757 22.788 26.9278 22.5747Z" fill="#F4BC5F"/>
</g>
</g>
</g>
<g id="Group_157">
<g id="Group_158">
<g id="Group_159">
<path id="Vector_65" d="M29.1123 22.2878V23.7546H27.9492V22.2878C27.9492 21.9324 28.2077 21.6416 28.5308 21.6416C28.8474 21.6416 29.1123 21.9324 29.1123 22.2878Z" fill="#F4BC5F"/>
</g>
</g>
</g>
</g>
</g>
</g>
<g id="Group_160">
<g id="Group_161">
<path id="Vector_66" d="M4.86328 22.7534L7.44858 25.3387L4.86328 27.924L2.27799 25.3387L4.86328 22.7534Z" fill="#FC4A32"/>
</g>
</g>
<g id="Group_162">
<g id="Group_163">
<path id="Vector_67" d="M5.43538 24.2091C5.43538 25.1423 4.67886 25.8989 3.74565 25.8989C3.40915 25.8989 3.24063 26.3057 3.47857 26.5436L4.86187 27.9269L7.4471 25.3417L6.05704 23.9516C5.82763 23.7222 5.43538 23.8847 5.43538 24.2091Z" fill="#E23E2D"/>
</g>
</g>
</g>
<g id="Group_164">
<g id="Group_165">
<path id="Vector_68" d="M10.0529 15.4447H6.07366C5.6258 15.4447 5.2627 15.0816 5.2627 14.6337C5.2627 14.1859 5.6258 13.8228 6.07366 13.8228H10.0529C10.5007 13.8228 10.8638 14.1859 10.8638 14.6337C10.8638 15.0816 10.5007 15.4447 10.0529 15.4447Z" fill="#82C8FB"/>
</g>
</g>
</g>
</g>
</svg>
